<?xml version="1.0" encoding="UTF-8" standalone="no"?>
<svg
   xmlns:dc="http://purl.org/dc/elements/1.1/"
   xmlns:cc="http://creativecommons.org/ns#"
   xmlns:rdf="http://www.w3.org/1999/02/22-rdf-syntax-ns#"
   xmlns:svg="http://www.w3.org/2000/svg"
   xmlns="http://www.w3.org/2000/svg"
   xmlns:sodipodi="http://sodipodi.sourceforge.net/DTD/sodipodi-0.dtd"
   xmlns:inkscape="http://www.inkscape.org/namespaces/inkscape"
   sodipodi:docname="01_integrator_schematic.svg"
   inkscape:version="1.0 (4035a4fb49, 2020-05-01)"
   id="svg8"
   version="1.1"
   viewBox="0 0 490.06307 128.32293"
   height="485"
   width="1852.2069"
   inkscape:export-filename="D:\Ralf Gerlich\Videos\MoDyPy\Tutorials\01_Integrator\GRAPHICS\Integrator Schematics with Signal.png"
   inkscape:export-xdpi="96"
   inkscape:export-ydpi="96">
  <defs
     id="defs2">
    <marker
       inkscape:stockid="Arrow1Mend"
       orient="auto"
       refY="0"
       refX="0"
       id="marker1555"
       style="overflow:visible"
       inkscape:isstock="true">
      <path
         id="path1553"
         d="M 0,0 5,-5 -12.5,0 5,5 Z"
         style="fill:#000000;fill-opacity:1;fill-rule:evenodd;stroke:#000000;stroke-width:1pt;stroke-opacity:1"
         transform="matrix(-0.4,0,0,-0.4,-4,0)" />
    </marker>
    <marker
       inkscape:stockid="Arrow1Mend"
       orient="auto"
       refY="0"
       refX="0"
       id="marker1491"
       style="overflow:visible"
       inkscape:isstock="true">
      <path
         id="path1489"
         d="M 0,0 5,-5 -12.5,0 5,5 Z"
         style="fill:#000000;fill-opacity:1;fill-rule:evenodd;stroke:#000000;stroke-width:1pt;stroke-opacity:1"
         transform="matrix(-0.4,0,0,-0.4,-4,0)" />
    </marker>
    <marker
       inkscape:isstock="true"
       style="overflow:visible"
       id="marker1555-0"
       refX="0"
       refY="0"
       orient="auto"
       inkscape:stockid="Arrow1Mend">
      <path
         transform="matrix(-0.4,0,0,-0.4,-4,0)"
         style="fill:#000000;fill-opacity:1;fill-rule:evenodd;stroke:#000000;stroke-width:1pt;stroke-opacity:1"
         d="M 0,0 5,-5 -12.5,0 5,5 Z"
         id="path1553-4" />
    </marker>
    <marker
       inkscape:stockid="Arrow1Lend"
       orient="auto"
       refY="0"
       refX="0"
       id="Arrow1Lend"
       style="overflow:visible"
       inkscape:isstock="true">
      <path
         id="path3192"
         d="M 0,0 5,-5 -12.5,0 5,5 Z"
         style="fill:#000000;fill-opacity:1;fill-rule:evenodd;stroke:#000000;stroke-width:1pt;stroke-opacity:1"
         transform="matrix(-0.8,0,0,-0.8,-10,0)" />
    </marker>
    <marker
       inkscape:isstock="true"
       style="overflow:visible"
       id="Arrow1Lend-4"
       refX="0"
       refY="0"
       orient="auto"
       inkscape:stockid="Arrow1Lend">
      <path
         transform="matrix(-0.8,0,0,-0.8,-10,0)"
         style="fill:#000000;fill-opacity:1;fill-rule:evenodd;stroke:#000000;stroke-width:1pt;stroke-opacity:1"
         d="M 0,0 5,-5 -12.5,0 5,5 Z"
         id="path3192-8" />
    </marker>
    <marker
       inkscape:stockid="Arrow1Mend"
       orient="auto"
       refY="0"
       refX="0"
       id="marker1555-4"
       style="overflow:visible"
       inkscape:isstock="true">
      <path
         id="path1553-7"
         d="M 0,0 5,-5 -12.5,0 5,5 Z"
         style="fill:#000000;fill-opacity:1;fill-rule:evenodd;stroke:#000000;stroke-width:1pt;stroke-opacity:1"
         transform="matrix(-0.4,0,0,-0.4,-4,0)" />
    </marker>
    <marker
       inkscape:stockid="Arrow1Mend"
       orient="auto"
       refY="0"
       refX="0"
       id="marker1491-4"
       style="overflow:visible"
       inkscape:isstock="true">
      <path
         id="path1489-0"
         d="M 0,0 5,-5 -12.5,0 5,5 Z"
         style="fill:#000000;fill-opacity:1;fill-rule:evenodd;stroke:#000000;stroke-width:1pt;stroke-opacity:1"
         transform="matrix(-0.4,0,0,-0.4,-4,0)" />
    </marker>
    <marker
       inkscape:isstock="true"
       style="overflow:visible"
       id="marker1555-0-7"
       refX="0"
       refY="0"
       orient="auto"
       inkscape:stockid="Arrow1Mend">
      <path
         transform="matrix(-0.4,0,0,-0.4,-4,0)"
         style="fill:#000000;fill-opacity:1;fill-rule:evenodd;stroke:#000000;stroke-width:1pt;stroke-opacity:1"
         d="M 0,0 5,-5 -12.5,0 5,5 Z"
         id="path1553-4-8" />
    </marker>
    <marker
       inkscape:stockid="Arrow1Lend"
       orient="auto"
       refY="0"
       refX="0"
       id="Arrow1Lend-7"
       style="overflow:visible"
       inkscape:isstock="true">
      <path
         id="path3192-7"
         d="M 0,0 5,-5 -12.5,0 5,5 Z"
         style="fill:#000000;fill-opacity:1;fill-rule:evenodd;stroke:#000000;stroke-width:1pt;stroke-opacity:1"
         transform="matrix(-0.8,0,0,-0.8,-10,0)" />
    </marker>
    <marker
       inkscape:isstock="true"
       style="overflow:visible"
       id="Arrow1Lend-4-2"
       refX="0"
       refY="0"
       orient="auto"
       inkscape:stockid="Arrow1Lend">
      <path
         transform="matrix(-0.8,0,0,-0.8,-10,0)"
         style="fill:#000000;fill-opacity:1;fill-rule:evenodd;stroke:#000000;stroke-width:1pt;stroke-opacity:1"
         d="M 0,0 5,-5 -12.5,0 5,5 Z"
         id="path3192-8-0" />
    </marker>
    <marker
       inkscape:stockid="Arrow1Lend"
       orient="auto"
       refY="0"
       refX="0"
       id="Arrow1Lend-4-6"
       style="overflow:visible"
       inkscape:isstock="true">
      <path
         id="path3192-8-8"
         d="M 0,0 5,-5 -12.5,0 5,5 Z"
         style="fill:#000000;fill-opacity:1;fill-rule:evenodd;stroke:#000000;stroke-width:1pt;stroke-opacity:1"
         transform="matrix(-0.8,0,0,-0.8,-10,0)" />
    </marker>
  </defs>
  <sodipodi:namedview
     inkscape:snap-nodes="true"
     inkscape:guide-bbox="true"
     showguides="true"
     inkscape:snap-bbox-edge-midpoints="true"
     inkscape:snap-bbox="true"
     units="px"
     inkscape:window-maximized="1"
     inkscape:window-y="-11"
     inkscape:window-x="-11"
     inkscape:window-height="1046"
     inkscape:window-width="1920"
     showgrid="true"
     inkscape:document-rotation="0"
     inkscape:current-layer="layer1"
     inkscape:document-units="px"
     inkscape:cy="316.81634"
     inkscape:cx="913.42935"
     inkscape:zoom="0.49497475"
     inkscape:pageshadow="2"
     inkscape:pageopacity="0.0"
     borderopacity="1.0"
     bordercolor="#666666"
     pagecolor="#ffffff"
     id="base"
     inkscape:bbox-nodes="false"
     inkscape:snap-text-baseline="true"
     fit-margin-top="0"
     fit-margin-left="0"
     fit-margin-right="0"
     fit-margin-bottom="0">
    <inkscape:grid
       type="xygrid"
       id="grid1934"
       originx="-10.58333"
       originy="-84.005218" />
    <sodipodi:guide
       position="-5.2916635,69.453136"
       orientation="0,-1"
       id="guide2033" />
    <sodipodi:guide
       position="243.41668,69.453146"
       orientation="-1,0"
       id="guide2035"
       inkscape:label=""
       inkscape:locked="false"
       inkscape:color="rgb(0,0,255)" />
  </sodipodi:namedview>
  <metadata
     id="metadata5">
    <rdf:RDF>
      <cc:Work
         rdf:about="">
        <dc:format>image/svg+xml</dc:format>
        <dc:type
           rdf:resource="http://purl.org/dc/dcmitype/StillImage" />
        <dc:title></dc:title>
      </cc:Work>
    </rdf:RDF>
  </metadata>
  <g
     style="display:inline"
     id="layer1"
     inkscape:groupmode="layer"
     inkscape:label="Integrator"
     transform="translate(-10.58333,-84.005212)">
    <path
       id="path3187-7"
       d="m 429.28648,58.869788 h 58.20833"
       style="fill:none;stroke:#000000;stroke-width:1.32292;stroke-linecap:butt;stroke-linejoin:miter;stroke-miterlimit:4;stroke-dasharray:none;stroke-opacity:1;marker-end:url(#Arrow1Lend-4)"
       sodipodi:nodetypes="cc"
       transform="translate(10.58333,84.005212)" />
    <g
       id="g2315"
       transform="matrix(1.5,0,0,1.5,447.02684,100.54167)">
      <svg
         id="svg2313"
         version="1.1"
         width="100%"
         height="100%">
        <path
           id="path2305"
           fill="#000000"
           d="m 4.4200001,6.1599998 c 1.0266666,0 1.7466664,0.5066672 2.1599998,1.5200005 0.4266663,-0.8266659 0.9933329,-1.3199997 1.6999998,-1.4800005 0.1333332,-0.026666 0.2666664,-0.04 0.3999997,-0.04 0.7866668,0 1.3400006,0.2200013 1.6600006,0.6600008 0.133333,0.186667 0.199999,0.4066668 0.2,0.6599994 -10e-7,0.5466666 -0.246667,0.9133334 -0.7399998,1.0999999 C 9.6800003,8.6200008 9.5666666,8.6400013 9.46,8.6400003 9.0466661,8.6400013 8.7999992,8.460001 8.7200003,8.1000004 8.7066669,8.0466671 8.6999998,7.9933333 8.6999998,7.9400001 8.6999998,7.5400004 8.8933334,7.2266674 9.2799997,7 9.3999996,6.9333344 9.5266666,6.8866673 9.6599998,6.8600006 c -0.2800006,-0.1733332 -0.6133337,-0.2600002 -1,-0.2600002 -0.9066667,0 -1.5466671,0.7066669 -1.92,2.1199999 -0.026667,0.080001 -0.046667,0.1600008 -0.06,0.2399997 L 6,11.7 c -0.2266669,0.906667 -0.3400002,1.493334 -0.3400002,1.76 0,0.693334 0.2466665,1.113334 0.7399998,1.26 0.1066666,0.04 0.2266665,0.06 0.3600002,0.06 0.6666665,0 1.273333,-0.333333 1.8200001,-1 0.3599997,-0.426667 0.6399994,-0.966666 0.8400002,-1.62 0.039999,-0.146667 0.1266651,-0.219999 0.2599993,-0.219999 0.1600008,0 0.2400007,0.06667 0.2400007,0.199999 0,0.333333 -0.206667,0.813334 -0.6199999,1.44 -0.7200003,1.093333 -1.5799999,1.64 -2.5800004,1.64 -0.9066672,0 -1.5666671,-0.38 -1.98,-1.14 -0.08,-0.12 -0.1400004,-0.246667 -0.1799999,-0.38 C 4.2399998,14.34 3.7999997,14.786667 3.24,15.04 2.9866667,15.16 2.7266665,15.22 2.46,15.22 1.66,15.22 1.0999999,14.986667 0.77999991,14.52 0.64666665,14.346666 0.57999992,14.14 0.57999998,13.9 c -6e-8,-0.493333 0.21333331,-0.84 0.63999992,-1.039999 0.1466667,-0.08 0.3000001,-0.120001 0.46,-0.120001 0.4,0 0.6399998,0.166667 0.72,0.5 0.013333,0.06667 0.02,0.133333 0.02,0.200001 -2e-7,0.453332 -0.2266667,0.786665 -0.6799998,0.999999 -0.08,0.04 -0.1666667,0.06667 -0.26,0.08 0.2799999,0.173334 0.6133332,0.26 1,0.26 0.7066665,0 1.2666664,-0.473334 1.6799998,-1.42 0.08,-0.2 0.1533332,-0.419999 0.2200003,-0.66 C 5.0999999,9.9800005 5.46,8.3933334 5.46,7.9400001 5.3799996,7.1133332 5.0199995,6.666667 4.3800001,6.6000004 3.6866665,6.6000004 3.0533333,6.9533339 2.48,7.6600003 v 0.02 c 0,0.013333 -0.00667,0.02 -0.02,0.02 C 2.2599998,7.9666672 2.0799999,8.2733345 1.9199998,8.6200008 1.8533332,8.7800007 1.7933333,8.9400005 1.74,9.1000004 L 1.7,9.2200003 C 1.673333,9.3666668 1.5866667,9.4400005 1.44,9.4400005 1.28,9.4400005 1.1999999,9.3733335 1.2,9.2399998 1.1999999,8.9066677 1.4133333,8.4266672 1.84,7.8000002 2.56,6.7066669 3.4199999,6.1599998 4.4200001,6.1599998 Z" />
        <path
           id="path2307"
           fill="#000000"
           d="m 17.850559,0 c 0.133335,9.5367432e-7 0.200001,0.06666756 0.200001,0.2000007 0,0.0666667 -0.08667,0.18000037 -0.26,0.3399992 -2.146667,2.1866675 -3.22,5.3400012 -3.22,9.4600001 0,4.106667 1.046667,7.226667 3.14,9.360001 0.226665,0.226665 0.34,0.373333 0.34,0.439998 0,0.133333 -0.06667,0.200001 -0.200001,0.200001 -0.16,0 -0.513332,-0.273335 -1.059999,-0.82 -0.826667,-0.826667 -1.513334,-1.806667 -2.06,-2.94 -0.88,-1.813334 -1.32,-3.893334 -1.32,-6.24 0,-2.2533331 0.42,-4.2866669 1.26,-6.0999994 0.693334,-1.4799996 1.573333,-2.666667 2.64,-3.56000051 C 17.590559,0.11333466 17.770559,9.5367432e-7 17.850559,0 Z" />
        <path
           id="path2309"
           fill="#000000"
           d="m 23.728361,2.4800005 c 0.346666,9e-7 0.539999,0.1800013 0.58,0.54 0,0.08 -0.273334,1.2000007 -0.82,3.3599996 h 1.759999 c 0.346668,0 0.533333,0.073334 0.560001,0.2200003 0,0.2399998 -0.106667,0.373333 -0.32,0.3999996 h -0.02 -0.26 -1.879999 l -1.480002,5.9 c -0.08,0.333334 -0.119999,0.653333 -0.119999,0.96 0,0.613333 0.206667,0.92 0.619999,0.92 0.879999,0 1.653334,-0.646667 2.320002,-1.94 l 0.279998,-0.62 c 0.08,-0.173333 0.180001,-0.266666 0.3,-0.279999 0.16,0 0.239999,0.06667 0.240001,0.199999 -2e-6,0.173334 -0.173334,0.553334 -0.52,1.14 -0.773335,1.293334 -1.66,1.94 -2.66,1.94 -0.773334,0 -1.32,-0.32 -1.640001,-0.96 -0.133333,-0.266666 -0.199999,-0.56 -0.199999,-0.88 0,-0.253333 0.406666,-1.98 1.219999,-5.1799992 L 21.988361,7 h -1.76 C 19.895027,7 19.715027,6.9466667 19.68836,6.8400002 h -0.02 v -0.08 c 0,-0.2266664 0.106668,-0.3533334 0.320001,-0.3800001 h 0.279999 1.880001 L 22.92836,3.1999998 c 0.120001,-0.4666662 0.386667,-0.706666 0.800001,-0.7199993 z" />
        <path
           id="path2311"
           fill="#000000"
           d="m 27.77062,0 c 0.16,9.5367432e-7 0.513333,0.2733345 1.06,0.82000077 0.826668,0.82666673 1.513334,1.80666623 2.060001,2.93999943 0.879999,1.8133335 1.32,3.8933335 1.32,6.2399998 0,2.253333 -0.420002,4.286667 -1.26,6.1 -0.693335,1.48 -1.573334,2.666666 -2.640002,3.56 C 28.030621,19.886665 27.85062,20 27.77062,20 c -0.133333,0 -0.2,-0.06667 -0.2,-0.200001 0,-0.06667 0.08667,-0.18 0.26,-0.34 C 29.977287,17.273333 31.050621,14.12 31.050621,10 c 0,-4.0666656 -1.000002,-7.1466656 -3,-9.23999965 l -0.1,-0.1000005 C 27.697287,0.42000008 27.57062,0.26666737 27.57062,0.2000007 27.57062,0.06666756 27.637287,9.5367432e-7 27.77062,0 Z" />
      </svg>
    </g>
    <g
       transform="matrix(1.5,0,0,1.5,197.64308,100.54167)"
       id="g2022">
      <svg
         height="100%"
         width="100%"
         version="1.1"
         id="svg2020">
        <path
           d="m 3.22,6.1599998 c 0.7066663,0 1.1999996,0.3000002 1.4799998,0.9000001 0.1066666,0.226667 0.1599999,0.4733339 0.1599999,0.7400003 C 4.8599997,8.0666676 4.746666,8.4866676 4.52,9.0599995 3.7999997,10.966667 3.4399996,12.326667 3.4399998,13.14 c -2e-7,1.093334 0.4133332,1.64 1.24,1.64 0.8399997,0 1.5466667,-0.46 2.1199999,-1.38 0.08,-0.12 0.1333337,-0.22 0.1600003,-0.3 0.2933331,-1.319999 0.7933331,-3.3266665 1.5,-6.0199996 0.1066666,-0.4666667 0.3666659,-0.7000003 0.7799998,-0.7000003 0.333333,0.066667 0.5266666,0.2466669 0.5799999,0.54 0,-0.026667 -0.1000004,0.4200001 -0.3000002,1.3400001 C 9.3333321,8.9400005 9.2199993,9.3933334 9.1799994,9.6199999 L 8.6199999,11.78 c -0.2666664,1.160001 -0.3999996,1.853333 -0.3999996,2.08 0,0.613333 0.206666,0.92 0.6199999,0.92 0.5599994,0 1.0199985,-0.666666 1.3799988,-2 0.04,-0.133333 0.08,-0.293333 0.120001,-0.48 0.106667,-0.226666 0.199999,-0.346666 0.28,-0.359999 0.159999,0 0.239999,0.06667 0.24,0.199999 -10e-7,0.2 -0.12,0.666667 -0.36,1.4 -0.08,0.226666 -0.16,0.42 -0.24,0.58 -0.3600004,0.733333 -0.8533342,1.1 -1.4800003,1.1 C 8.0199995,15.22 7.4799995,14.9 7.1599998,14.26 7.0933332,14.14 7.04,14.013333 7,13.88 6.3066664,14.773334 5.5133333,15.22 4.6199999,15.22 3.54,15.22 2.8066664,14.826667 2.4199998,14.04 c -0.1733334,-0.346666 -0.26,-0.753333 -0.26,-1.22 0,-0.72 0.3533335,-2.026667 1.0600002,-3.9200004 0.026666,-0.093332 0.06,-0.1866655 0.1,-0.2799988 0.2266667,-0.5733337 0.3399999,-1.0266671 0.3399999,-1.3600006 0,-0.4399996 -0.1666667,-0.6599998 -0.5,-0.6599998 -0.7466666,0 -1.3533332,0.6333332 -1.82,1.8999996 -0.013333,0 -0.02,0.00667 -0.02,0.020001 V 8.54 C 1.2533333,8.7133341 1.1933334,8.8933334 1.14,9.0799999 0.99333328,9.3066673 0.88666666,9.4266663 0.81999999,9.4400005 0.65999997,9.4400005 0.57999992,9.373333 0.57999998,9.2399998 0.57999992,9 0.71999997,8.5799999 1,7.98 1.5866666,6.7666664 2.3266666,6.1599998 3.22,6.1599998 Z"
           fill="#000000"
           id="path2012" />
        <path
           d="m 17.86916,0 c 0.133333,9.5367432e-7 0.2,0.06666756 0.2,0.2000007 0,0.0666667 -0.08667,0.18000037 -0.260002,0.3399992 C 15.662493,2.7266674 14.589159,5.8800011 14.589159,10 c 0,4.106667 1.046667,7.226667 3.140001,9.360001 0.226666,0.226665 0.34,0.373333 0.34,0.439998 0,0.133333 -0.06667,0.200001 -0.2,0.200001 -0.16,0 -0.513335,-0.273335 -1.060002,-0.82 -0.826666,-0.826667 -1.513332,-1.806667 -2.059998,-2.94 -0.88,-1.813334 -1.320001,-3.893334 -1.320001,-6.24 0,-2.2533331 0.42,-4.2866669 1.26,-6.0999994 0.693333,-1.4799996 1.573334,-2.666667 2.64,-3.56000051 C 17.609159,0.11333466 17.789158,9.5367432e-7 17.86916,0 Z"
           fill="#000000"
           id="path2014" />
        <path
           d="m 23.74696,2.4800005 c 0.346666,9e-7 0.539999,0.1800013 0.58,0.54 -2e-6,0.08 -0.273335,1.2000007 -0.820002,3.3599996 h 1.760002 c 0.346665,0 0.533333,0.073334 0.56,0.2200003 C 25.826958,6.8400002 25.720291,6.9733334 25.506958,7 h -0.02 -0.26 -1.880001 l -1.479999,5.9 c -0.08,0.333334 -0.119999,0.653333 -0.119999,0.96 0,0.613333 0.206665,0.92 0.619999,0.92 0.880001,0 1.653333,-0.646667 2.319999,-1.94 l 0.280001,-0.62 c 0.08,-0.173333 0.18,-0.266666 0.300001,-0.279999 0.159998,0 0.239998,0.06667 0.239998,0.199999 0,0.173334 -0.173332,0.553334 -0.519999,1.14 -0.773334,1.293334 -1.660001,1.94 -2.659999,1.94 -0.773335,0 -1.32,-0.32 -1.640002,-0.96 -0.133333,-0.266666 -0.199999,-0.56 -0.199999,-0.88 0,-0.253333 0.406666,-1.98 1.22,-5.1799992 L 22.00696,7 h -1.76 C 19.913626,7 19.733625,6.9466667 19.706959,6.8400002 h -0.02 v -0.08 c 0,-0.2266664 0.106667,-0.3533334 0.320002,-0.3800001 h 0.279999 1.880001 L 22.94696,3.1999998 c 0.12,-0.4666662 0.386667,-0.706666 0.8,-0.7199993 z"
           fill="#000000"
           id="path2016" />
        <path
           d="m 27.789221,0 c 0.16,9.5367432e-7 0.513332,0.2733345 1.059999,0.82000077 C 29.675888,1.6466675 30.362555,2.626667 30.909222,3.7600002 31.789221,5.5733337 32.229221,7.6533337 32.229221,10 c 0,2.253333 -0.420002,4.286667 -1.26,6.1 -0.693334,1.48 -1.573334,2.666666 -2.640001,3.56 -0.279999,0.226665 -0.459999,0.34 -0.539999,0.34 -0.133333,0 -0.200001,-0.06667 -0.200001,-0.200001 0,-0.06667 0.08667,-0.18 0.26,-0.34 C 29.995888,17.273333 31.069221,14.12 31.069221,10 c 0,-4.0666656 -1.000001,-7.1466656 -3,-9.23999965 l -0.1,-0.1000005 C 27.715887,0.42000008 27.58922,0.26666737 27.58922,0.2000007 27.58922,0.06666756 27.655888,9.5367432e-7 27.789221,0 Z"
           fill="#000000"
           id="path2018" />
      </svg>
    </g>
    <g
       id="g3066"
       transform="translate(5.9531278)">
      <rect
         ry="0"
         y="84.666672"
         x="243.41667"
         height="127"
         width="190.50002"
         id="rect2048"
         style="fill:#ffffff;stroke:#000000;stroke-width:1.32292" />
      <text
         xml:space="preserve"
         style="font-style:normal;font-variant:normal;font-weight:normal;font-stretch:normal;font-size:33.633px;line-height:17.7976px;font-family:Enriqueta;-inkscape-font-specification:Enriqueta;text-align:center;letter-spacing:0px;word-spacing:0px;text-anchor:middle;stroke-width:1.57655"
         x="338.66669"
         y="116.41667"
         id="text3564"><tspan
           sodipodi:role="line"
           id="tspan3562"
           x="338.66669"
           y="116.41667"
           style="font-style:normal;font-variant:normal;font-weight:normal;font-stretch:normal;font-family:Enriqueta;-inkscape-font-specification:Enriqueta;text-align:center;text-anchor:middle;stroke-width:1.57655">Integrator</tspan></text>
      <g
         id="g2349"
         transform="translate(52.315034,41.458334)">
        <g
           transform="matrix(1.5,0,0,1.5,216.08834,96.125003)"
           id="g2113">
          <svg
             height="100%"
             width="100%"
             version="1.1"
             id="svg2111">
            <path
               d="m 6.2730699,1.6199999 c 0.44,9e-7 0.7599997,0.2066679 0.96,0.6200008 0.066666,0.1466666 0.1,0.2933331 0.1,0.4399996 0,0.4133339 -0.1866665,0.7200003 -0.5599999,0.9200001 -0.1600004,0.093334 -0.3333335,0.1400013 -0.52,0.1400003 -0.4400001,1e-6 -0.7600003,-0.206666 -0.9600001,-0.6200008 -0.066667,-0.1466656 -0.1000003,-0.2933321 -0.1,-0.4399996 -4e-7,-0.4133329 0.1866665,-0.7199993 0.56,-0.9200001 0.1599998,-0.093332 0.333333,-0.1399994 0.52,-0.1400003 z"
               fill="#000000"
               id="path2091" />
            <path
               d="m 4.4200001,6.1599998 c 1.0266666,0 1.7466664,0.5066672 2.1599998,1.5200005 0.4266663,-0.8266659 0.9933329,-1.3199997 1.6999998,-1.4800005 0.1333332,-0.026666 0.2666664,-0.04 0.3999997,-0.04 0.7866668,0 1.3400006,0.2200013 1.6600006,0.6600008 0.133333,0.186667 0.199999,0.4066668 0.2,0.6599994 -10e-7,0.5466666 -0.246667,0.9133334 -0.7399998,1.0999999 C 9.6800003,8.6200008 9.5666666,8.6400013 9.46,8.6400003 9.0466661,8.6400013 8.7999992,8.460001 8.7200003,8.1000004 8.7066669,8.0466671 8.6999998,7.9933333 8.6999998,7.9400001 8.6999998,7.5400004 8.8933334,7.2266674 9.2799997,7 9.3999996,6.9333344 9.5266666,6.8866673 9.6599998,6.8600006 c -0.2800006,-0.1733332 -0.6133337,-0.2600002 -1,-0.2600002 -0.9066667,0 -1.5466671,0.7066669 -1.92,2.1199999 -0.026667,0.080001 -0.046667,0.1600008 -0.06,0.2399997 L 6,11.7 c -0.2266669,0.906667 -0.3400002,1.493334 -0.3400002,1.76 0,0.693334 0.2466665,1.113334 0.7399998,1.26 0.1066666,0.04 0.2266665,0.06 0.3600002,0.06 0.6666665,0 1.273333,-0.333333 1.8200001,-1 0.3599997,-0.426667 0.6399994,-0.966666 0.8400002,-1.62 0.039999,-0.146667 0.1266651,-0.219999 0.2599993,-0.219999 0.1600008,0 0.2400007,0.06667 0.2400007,0.199999 0,0.333333 -0.206667,0.813334 -0.6199999,1.44 -0.7200003,1.093333 -1.5799999,1.64 -2.5800004,1.64 -0.9066672,0 -1.5666671,-0.38 -1.98,-1.14 -0.08,-0.12 -0.1400004,-0.246667 -0.1799999,-0.38 C 4.2399998,14.34 3.7999997,14.786667 3.24,15.04 2.9866667,15.16 2.7266665,15.22 2.46,15.22 1.66,15.22 1.0999999,14.986667 0.77999991,14.52 0.64666665,14.346666 0.57999992,14.14 0.57999998,13.9 c -6e-8,-0.493333 0.21333331,-0.84 0.63999992,-1.039999 0.1466667,-0.08 0.3000001,-0.120001 0.46,-0.120001 0.4,0 0.6399998,0.166667 0.72,0.5 0.013333,0.06667 0.02,0.133333 0.02,0.200001 -2e-7,0.453332 -0.2266667,0.786665 -0.6799998,0.999999 -0.08,0.04 -0.1666667,0.06667 -0.26,0.08 0.2799999,0.173334 0.6133332,0.26 1,0.26 0.7066665,0 1.2666664,-0.473334 1.6799998,-1.42 0.08,-0.2 0.1533332,-0.419999 0.2200003,-0.66 C 5.0999999,9.9800005 5.46,8.3933334 5.46,7.9400001 5.3799996,7.1133332 5.0199995,6.666667 4.3800001,6.6000004 3.6866665,6.6000004 3.0533333,6.9533339 2.48,7.6600003 v 0.02 c 0,0.013333 -0.00667,0.02 -0.02,0.02 C 2.2599998,7.9666672 2.0799999,8.2733345 1.9199998,8.6200008 1.8533332,8.7800007 1.7933333,8.9400005 1.74,9.1000004 L 1.7,9.2200003 C 1.673333,9.3666668 1.5866667,9.4400005 1.44,9.4400005 1.28,9.4400005 1.1999999,9.3733335 1.2,9.2399998 1.1999999,8.9066677 1.4133333,8.4266672 1.84,7.8000002 2.56,6.7066669 3.4199999,6.1599998 4.4200001,6.1599998 Z"
               fill="#000000"
               id="path2093" />
            <path
               d="m 17.850559,0 c 0.133335,9.5367432e-7 0.200001,0.06666756 0.200001,0.2000007 0,0.0666667 -0.08667,0.18000037 -0.26,0.3399992 -2.146667,2.1866675 -3.22,5.3400012 -3.22,9.4600001 0,4.106667 1.046667,7.226667 3.14,9.360001 0.226665,0.226665 0.34,0.373333 0.34,0.439998 0,0.133333 -0.06667,0.200001 -0.200001,0.200001 -0.16,0 -0.513332,-0.273335 -1.059999,-0.82 -0.826667,-0.826667 -1.513334,-1.806667 -2.06,-2.94 -0.88,-1.813334 -1.32,-3.893334 -1.32,-6.24 0,-2.2533331 0.42,-4.2866669 1.26,-6.0999994 0.693334,-1.4799996 1.573333,-2.666667 2.64,-3.56000051 C 17.590559,0.11333466 17.770559,9.5367432e-7 17.850559,0 Z"
               fill="#000000"
               id="path2095" />
            <path
               d="m 23.728361,2.4800005 c 0.346666,9e-7 0.539999,0.1800013 0.58,0.54 0,0.08 -0.273334,1.2000007 -0.82,3.3599996 h 1.759999 c 0.346668,0 0.533333,0.073334 0.560001,0.2200003 0,0.2399998 -0.106667,0.373333 -0.32,0.3999996 h -0.02 -0.26 -1.879999 l -1.480002,5.9 c -0.08,0.333334 -0.119999,0.653333 -0.119999,0.96 0,0.613333 0.206667,0.92 0.619999,0.92 0.879999,0 1.653334,-0.646667 2.320002,-1.94 l 0.279998,-0.62 c 0.08,-0.173333 0.180001,-0.266666 0.3,-0.279999 0.16,0 0.239999,0.06667 0.240001,0.199999 -2e-6,0.173334 -0.173334,0.553334 -0.52,1.14 -0.773335,1.293334 -1.66,1.94 -2.66,1.94 -0.773334,0 -1.32,-0.32 -1.640001,-0.96 -0.133333,-0.266666 -0.199999,-0.56 -0.199999,-0.88 0,-0.253333 0.406666,-1.98 1.219999,-5.1799992 L 21.988361,7 h -1.76 C 19.895027,7 19.715027,6.9466667 19.68836,6.8400002 h -0.02 v -0.08 c 0,-0.2266664 0.106668,-0.3533334 0.320001,-0.3800001 h 0.279999 1.880001 L 22.92836,3.1999998 c 0.120001,-0.4666662 0.386667,-0.706666 0.800001,-0.7199993 z"
               fill="#000000"
               id="path2097" />
            <path
               d="m 27.77062,0 c 0.16,9.5367432e-7 0.513333,0.2733345 1.06,0.82000077 0.826668,0.82666673 1.513334,1.80666623 2.060001,2.93999943 0.879999,1.8133335 1.32,3.8933335 1.32,6.2399998 0,2.253333 -0.420002,4.286667 -1.26,6.1 -0.693335,1.48 -1.573334,2.666666 -2.640002,3.56 C 28.030621,19.886665 27.85062,20 27.77062,20 c -0.133333,0 -0.2,-0.06667 -0.2,-0.200001 0,-0.06667 0.08667,-0.18 0.26,-0.34 C 29.977287,17.273333 31.050621,14.12 31.050621,10 c 0,-4.0666656 -1.000002,-7.1466656 -3,-9.23999965 l -0.1,-0.1000005 C 27.697287,0.42000008 27.57062,0.26666737 27.57062,0.2000007 27.57062,0.06666756 27.637287,9.5367432e-7 27.77062,0 Z"
               fill="#000000"
               id="path2099" />
            <path
               d="M 41.563992,11.54 H 53.50399 c 0.426666,0 0.653336,0.133333 0.68,0.400001 0,0.266666 -0.220001,0.399999 -0.659999,0.399999 h -11.98 c -0.426666,0 -0.646667,-0.133333 -0.66,-0.399999 0,-0.266668 0.22667,-0.400001 0.680001,-0.400001 z m -0.02,-3.8799997 h 11.98 c 0.42667,0 0.646667,0.1333332 0.659999,0.3999992 0,0.2666673 -0.226665,0.4000005 -0.68,0.4000005 H 41.563992 c -0.426667,0 -0.653332,-0.1333332 -0.680001,-0.4000005 0,-0.266666 0.220001,-0.3999992 0.660001,-0.3999992 z"
               fill="#000000"
               id="path2101" />
            <path
               d="m 64.095184,6.1599998 c 0.706665,0 1.199997,0.3000002 1.479996,0.9000001 0.106667,0.226667 0.160004,0.4733339 0.160004,0.7400003 0,0.2666674 -0.113335,0.6866674 -0.340004,1.2599993 -0.719994,1.9066675 -1.079994,3.2666675 -1.079994,4.0800005 0,1.093334 0.41333,1.64 1.239997,1.64 0.839997,0 1.546669,-0.46 2.120003,-1.38 0.07999,-0.12 0.133331,-0.22 0.159996,-0.3 0.293335,-1.319999 0.793335,-3.3266665 1.5,-6.0199996 0.106667,-0.4666667 0.366669,-0.7000003 0.779999,-0.7000003 0.333336,0.066667 0.526665,0.2466669 0.580002,0.54 0,-0.026667 -0.1,0.4200001 -0.300003,1.3400001 -0.186669,0.6800003 -0.299996,1.1333332 -0.339997,1.3599997 L 69.495186,11.78 c -0.26667,1.160001 -0.400002,1.853333 -0.400002,2.08 0,0.613333 0.206665,0.92 0.619995,0.92 0.560006,0 1.020005,-0.666666 1.380005,-2 0.04,-0.133333 0.08,-0.293333 0.119995,-0.48 0.106675,-0.226666 0.200005,-0.346666 0.280007,-0.359999 0.159996,0 0.239998,0.06667 0.239998,0.199999 0,0.2 -0.120003,0.666667 -0.360001,1.4 -0.08,0.226666 -0.160004,0.42 -0.239998,0.58 -0.36,0.733333 -0.85334,1.1 -1.480003,1.1 -0.760002,0 -1.300003,-0.32 -1.619995,-0.96 -0.06667,-0.12 -0.120003,-0.246667 -0.160004,-0.38 -0.693336,0.893334 -1.486664,1.34 -2.379997,1.34 -1.080002,0 -1.813336,-0.393333 -2.200005,-1.18 -0.173332,-0.346666 -0.259998,-0.753333 -0.259998,-1.22 0,-0.72 0.353332,-2.026667 1.060001,-3.9200004 0.02666,-0.093332 0.06,-0.1866655 0.1,-0.2799988 0.226669,-0.5733337 0.340004,-1.0266671 0.340004,-1.3600006 0,-0.4399996 -0.166672,-0.6599998 -0.5,-0.6599998 -0.74667,0 -1.353337,0.6333332 -1.820004,1.8999996 -0.01333,0 -0.02,0.00667 -0.02,0.020001 V 8.54 c -0.06667,0.1733341 -0.126667,0.3533334 -0.180001,0.5399999 -0.146667,0.2266674 -0.253334,0.3466664 -0.319999,0.3600006 -0.16,0 -0.239998,-0.066667 -0.239998,-0.2000007 C 61.455185,9 61.595184,8.5799999 61.875183,7.98 62.461849,6.7666664 63.201851,6.1599998 64.095184,6.1599998 Z"
               fill="#000000"
               id="path2103" />
            <path
               d="m 78.744339,0 c 0.133331,9.5367432e-7 0.200005,0.06666756 0.200005,0.2000007 0,0.0666667 -0.08667,0.18000037 -0.260003,0.3399992 C 76.537674,2.7266674 75.46434,5.8800011 75.46434,10 c 0,4.106667 1.046669,7.226667 3.14,9.360001 0.226669,0.226665 0.340004,0.373333 0.340004,0.439998 0,0.133333 -0.06667,0.200001 -0.200005,0.200001 -0.159996,0 -0.513336,-0.273335 -1.059998,-0.82 -0.826667,-0.826667 -1.513336,-1.806667 -2.059997,-2.94 -0.880005,-1.813334 -1.32,-3.893334 -1.32,-6.24 0,-2.2533331 0.419998,-4.2866669 1.259995,-6.0999994 C 76.257675,2.420001 77.137672,1.2333336 78.204338,0.34000009 78.484337,0.11333466 78.664337,9.5367432e-7 78.744339,0 Z"
               fill="#000000"
               id="path2105" />
            <path
               d="m 84.622139,2.4800005 c 0.346672,9e-7 0.540001,0.1800013 0.580002,0.54 0,0.08 -0.273331,1.2000007 -0.82,3.3599996 h 1.760002 c 0.346665,0 0.533333,0.073334 0.559998,0.2200003 0,0.2399998 -0.106667,0.373333 -0.32,0.3999996 h -0.02 -0.260002 -1.879997 l -1.480003,5.9 c -0.08,0.333334 -0.120003,0.653333 -0.120003,0.96 0,0.613333 0.206673,0.92 0.620003,0.92 0.879997,0 1.653335,-0.646667 2.319999,-1.94 l 0.279999,-0.62 c 0.08,-0.173333 0.180001,-0.266666 0.300003,-0.279999 0.159996,0 0.239998,0.06667 0.239998,0.199999 0,0.173334 -0.173332,0.553334 -0.519997,1.14 -0.773338,1.293334 -1.660003,1.94 -2.660003,1.94 -0.773331,0 -1.32,-0.32 -1.64,-0.96 -0.133331,-0.266666 -0.199997,-0.56 -0.199997,-0.88 0,-0.253333 0.406662,-1.98 1.220002,-5.1799992 L 82.882141,7 H 81.122139 C 80.788811,7 80.60881,6.9466667 80.582146,6.8400002 h -0.02 v -0.08 c 0,-0.2266664 0.106667,-0.3533334 0.32,-0.3800001 h 0.279999 1.880005 l 0.779999,-3.1800003 c 0.119995,-0.4666662 0.386665,-0.706666 0.799995,-0.7199993 z"
               fill="#000000"
               id="path2107" />
            <path
               d="m 88.664398,0 c 0.160004,9.5367432e-7 0.513336,0.2733345 1.060005,0.82000077 0.826668,0.82666673 1.513329,1.80666623 2.059998,2.93999943 0.879997,1.8133335 1.32,3.8933335 1.32,6.2399998 0,2.253333 -0.419999,4.286667 -1.260003,6.1 -0.693328,1.48 -1.573326,2.666666 -2.639999,3.56 C 88.9244,19.886665 88.7444,20 88.664398,20 c -0.133331,0 -0.199997,-0.06667 -0.199997,-0.200001 0,-0.06667 0.08667,-0.18 0.260002,-0.34 C 90.871071,17.273333 91.944405,14.12 91.944405,10 c 0,-4.0666656 -1,-7.1466656 -3,-9.23999965 L 88.844398,0.65999985 C 88.591072,0.42000008 88.464401,0.26666737 88.464401,0.2000007 88.464401,0.06666756 88.531067,9.5367432e-7 88.664398,0 Z"
               fill="#000000"
               id="path2109" />
          </svg>
        </g>
        <g
           id="g1300"
           transform="matrix(1.5,0,0,1.5,216.08834,133.16667)">
          <svg
             id="svg1298"
             version="1.1"
             width="100%"
             height="100%">
            <path
               id="path1286"
               fill="#000000"
               d="m 4.4200001,6.1599998 c 1.0266666,0 1.7466664,0.5066672 2.1599998,1.5200005 0.4266663,-0.8266659 0.9933329,-1.3199997 1.6999998,-1.4800005 0.1333332,-0.026666 0.2666664,-0.04 0.3999997,-0.04 0.7866668,0 1.3400006,0.2200013 1.6600006,0.6600008 0.133333,0.186667 0.199999,0.4066668 0.2,0.6599994 -10e-7,0.5466666 -0.246667,0.9133334 -0.7399998,1.0999999 C 9.6800003,8.6200008 9.5666666,8.6400013 9.46,8.6400003 9.0466661,8.6400013 8.7999992,8.460001 8.7200003,8.1000004 8.7066669,8.0466671 8.6999998,7.9933333 8.6999998,7.9400001 8.6999998,7.5400004 8.8933334,7.2266674 9.2799997,7 9.3999996,6.9333344 9.5266666,6.8866673 9.6599998,6.8600006 c -0.2800006,-0.1733332 -0.6133337,-0.2600002 -1,-0.2600002 -0.9066667,0 -1.5466671,0.7066669 -1.92,2.1199999 -0.026667,0.080001 -0.046667,0.1600008 -0.06,0.2399997 L 6,11.7 c -0.2266669,0.906667 -0.3400002,1.493334 -0.3400002,1.76 0,0.693334 0.2466665,1.113334 0.7399998,1.26 0.1066666,0.04 0.2266665,0.06 0.3600002,0.06 0.6666665,0 1.273333,-0.333333 1.8200001,-1 0.3599997,-0.426667 0.6399994,-0.966666 0.8400002,-1.62 0.039999,-0.146667 0.1266651,-0.219999 0.2599993,-0.219999 0.1600008,0 0.2400007,0.06667 0.2400007,0.199999 0,0.333333 -0.206667,0.813334 -0.6199999,1.44 -0.7200003,1.093333 -1.5799999,1.64 -2.5800004,1.64 -0.9066672,0 -1.5666671,-0.38 -1.98,-1.14 -0.08,-0.12 -0.1400004,-0.246667 -0.1799999,-0.38 C 4.2399998,14.34 3.7999997,14.786667 3.24,15.04 2.9866667,15.16 2.7266665,15.22 2.46,15.22 1.66,15.22 1.0999999,14.986667 0.77999991,14.52 0.64666665,14.346666 0.57999992,14.14 0.57999998,13.9 c -6e-8,-0.493333 0.21333331,-0.84 0.63999992,-1.039999 0.1466667,-0.08 0.3000001,-0.120001 0.46,-0.120001 0.4,0 0.6399998,0.166667 0.72,0.5 0.013333,0.06667 0.02,0.133333 0.02,0.200001 -2e-7,0.453332 -0.2266667,0.786665 -0.6799998,0.999999 -0.08,0.04 -0.1666667,0.06667 -0.26,0.08 0.2799999,0.173334 0.6133332,0.26 1,0.26 0.7066665,0 1.2666664,-0.473334 1.6799998,-1.42 0.08,-0.2 0.1533332,-0.419999 0.2200003,-0.66 C 5.0999999,9.9800005 5.46,8.3933334 5.46,7.9400001 5.3799996,7.1133332 5.0199995,6.666667 4.3800001,6.6000004 3.6866665,6.6000004 3.0533333,6.9533339 2.48,7.6600003 v 0.02 c 0,0.013333 -0.00667,0.02 -0.02,0.02 C 2.2599998,7.9666672 2.0799999,8.2733345 1.9199998,8.6200008 1.8533332,8.7800007 1.7933333,8.9400005 1.74,9.1000004 L 1.7,9.2200003 C 1.673333,9.3666668 1.5866667,9.4400005 1.44,9.4400005 1.28,9.4400005 1.1999999,9.3733335 1.2,9.2399998 1.1999999,8.9066677 1.4133333,8.4266672 1.84,7.8000002 2.56,6.7066669 3.4199999,6.1599998 4.4200001,6.1599998 Z" />
            <path
               id="path1288"
               fill="#000000"
               d="m 17.850559,0 c 0.133335,9.5367432e-7 0.200001,0.06666756 0.200001,0.2000007 0,0.0666667 -0.08667,0.18000037 -0.26,0.3399992 -2.146667,2.1866675 -3.22,5.3400012 -3.22,9.4600001 0,4.106667 1.046667,7.226667 3.14,9.360001 0.226665,0.226665 0.34,0.373333 0.34,0.439998 0,0.133333 -0.06667,0.200001 -0.200001,0.200001 -0.16,0 -0.513332,-0.273335 -1.059999,-0.82 -0.826667,-0.826667 -1.513334,-1.806667 -2.06,-2.94 -0.88,-1.813334 -1.32,-3.893334 -1.32,-6.24 0,-2.2533331 0.42,-4.2866669 1.26,-6.0999994 0.693334,-1.4799996 1.573333,-2.666667 2.64,-3.56000051 C 17.590559,0.11333466 17.770559,9.5367432e-7 17.850559,0 Z" />
            <path
               id="path1290"
               fill="#000000"
               d="m 24.18836,2.1199999 c -0.933332,9e-7 -1.613333,0.4666672 -2.039999,1.4000006 -0.146667,0.3199997 -0.26,0.7066669 -0.34,1.1599998 -0.106667,0.7200003 -0.16,1.9466667 -0.16,3.6800003 0,2.0133324 0.07333,3.4200004 0.22,4.2199994 0.239999,1.280001 0.826665,2.06 1.76,2.34 0.186666,0.05333 0.373333,0.08 0.559999,0.08 0.84,0 1.486666,-0.406667 1.940001,-1.22 0.186666,-0.36 0.319999,-0.786666 0.399999,-1.28 0.146666,-0.853333 0.22,-2.233334 0.22,-4.1399994 0,-1.8533335 -0.06667,-3.1533337 -0.199999,-3.9000006 -0.24,-1.2666654 -0.853335,-2.0266656 -1.84,-2.2799997 -0.173334,-0.04 -0.346667,-0.059999 -0.520001,-0.06 z M 23.968361,1.6800003 h 0.24 c 1.186666,0 2.153333,0.4733334 2.899999,1.4200001 v 0.019999 c 0.186667,0.2400007 0.353333,0.5066671 0.5,0.8000002 0.533333,1.1333332 0.8,2.6933336 0.8,4.6800003 0,1.9466671 -0.246666,3.4533331 -0.739998,4.5200001 -0.786667,1.493334 -1.946667,2.266665 -3.480002,2.32 -1.213333,0 -2.186666,-0.48 -2.92,-1.44 -0.146665,-0.173333 -0.273332,-0.366667 -0.379999,-0.58 -0.6,-1.106666 -0.9,-2.713333 -0.9,-4.8200001 0,-1.9600001 0.246666,-3.4733334 0.74,-4.54 0.666666,-1.4933328 1.746666,-2.2866659 3.24,-2.3799996 z" />
            <path
               id="path1292"
               fill="#000000"
               d="m 30.548401,0 c 0.16,9.5367432e-7 0.513332,0.2733345 1.059999,0.82000077 0.826666,0.82666673 1.513335,1.80666623 2.06,2.93999943 0.880001,1.8133335 1.32,3.8933335 1.32,6.2399998 0,2.253333 -0.419999,4.286667 -1.259999,6.1 -0.693332,1.48 -1.573334,2.666666 -2.640001,3.56 C 30.808401,19.886665 30.628401,20 30.548401,20 30.415068,20 30.3484,19.933332 30.3484,19.799999 c 0,-0.06667 0.08667,-0.18 0.26,-0.34 2.146666,-2.186666 3.22,-5.339999 3.22,-9.459999 0,-4.0666656 -1,-7.1466656 -2.999998,-9.23999965 L 30.728401,0.65999985 C 30.475067,0.42000008 30.3484,0.26666737 30.3484,0.2000007 30.3484,0.06666756 30.415068,9.5367432e-7 30.548401,0 Z" />
            <path
               id="path1294"
               fill="#000000"
               d="m 44.34177,11.54 h 11.939999 c 0.426666,0 0.653335,0.133333 0.68,0.400001 0,0.266666 -0.220001,0.399999 -0.66,0.399999 H 44.32177 c -0.426667,0 -0.646668,-0.133333 -0.66,-0.399999 0,-0.266668 0.226669,-0.400001 0.68,-0.400001 z m -0.02,-3.8799997 h 11.979999 c 0.42667,0 0.646668,0.1333332 0.66,0.3999992 0,0.2666673 -0.226665,0.4000005 -0.68,0.4000005 H 44.34177 c -0.426666,0 -0.653332,-0.1333332 -0.68,-0.4000005 0,-0.266666 0.220001,-0.3999992 0.66,-0.3999992 z" />
            <path
               id="path1296"
               fill="#000000"
               d="m 68.632965,2.1199999 c -0.933334,9e-7 -1.613335,0.4666672 -2.040001,1.4000006 -0.146667,0.3199997 -0.260002,0.7066669 -0.339996,1.1599998 -0.106667,0.7200003 -0.160004,1.9466667 -0.160004,3.6800003 0,2.0133324 0.07333,3.4200004 0.220001,4.2199994 0.239998,1.280001 0.826668,2.06 1.760003,2.34 0.18666,0.05333 0.373329,0.08 0.559997,0.08 0.839996,0 1.486664,-0.406667 1.940003,-1.22 0.18666,-0.36 0.319999,-0.786666 0.399993,-1.28 0.146668,-0.853333 0.220002,-2.233334 0.220002,-4.1399994 0,-1.8533335 -0.06667,-3.1533337 -0.199997,-3.9000006 -0.239998,-1.2666654 -0.853333,-2.0266656 -1.839997,-2.2799997 -0.173339,-0.04 -0.346672,-0.059999 -0.520004,-0.06 z M 68.412964,1.6800003 h 0.240005 c 1.186661,0 2.153328,0.4733334 2.899994,1.4200001 v 0.019999 c 0.186669,0.2400007 0.353333,0.5066671 0.5,0.8000002 0.533333,1.1333332 0.800003,2.6933336 0.800003,4.6800003 0,1.9466671 -0.246666,3.4533331 -0.739998,4.5200001 -0.786666,1.493334 -1.94667,2.266665 -3.480003,2.32 -1.213333,0 -2.186668,-0.48 -2.919998,-1.44 -0.146668,-0.173333 -0.273338,-0.366667 -0.380005,-0.58 -0.599998,-1.106666 -0.899994,-2.713333 -0.899994,-4.8200001 0,-1.9600001 0.246666,-3.4733334 0.739998,-4.54 0.666664,-1.4933328 1.746666,-2.2866659 3.239998,-2.3799996 z" />
          </svg>
        </g>
      </g>
    </g>
    <path
       sodipodi:nodetypes="cc"
       style="fill:none;stroke:#000000;stroke-width:1.32292;stroke-linecap:butt;stroke-linejoin:miter;stroke-miterlimit:4;stroke-dasharray:none;stroke-opacity:1;marker-end:url(#Arrow1Lend-4-6)"
       d="M 179.91667,58.869788 H 238.125"
       id="path3187-7-1"
       transform="translate(10.58333,84.005212)" />
  </g>
  <g
     style="display:inline"
     inkscape:label="Signal"
     id="layer2"
     inkscape:groupmode="layer">
    <g
       transform="translate(-189.83854,-189.1771)"
       id="g1952">
      <rect
         y="205.71355"
         x="190.5"
         height="84.666672"
         width="179.91667"
         id="rect1211"
         style="fill:#ffffff;stroke:#000000;stroke-width:1.32292" />
      <g
         id="g1096"
         transform="matrix(1.5,0,0,1.5,198.68456,254.00001)">
        <svg
           id="svg1094"
           version="1.1"
           width="100%"
           height="100%">
          <path
             id="path1072"
             fill="#000000"
             d="m 3.22,6.1599998 c 0.7066663,0 1.1999996,0.3000002 1.4799998,0.9000001 0.1066666,0.226667 0.1599999,0.4733339 0.1599999,0.7400003 C 4.8599997,8.0666676 4.746666,8.4866676 4.52,9.0599995 3.7999997,10.966667 3.4399996,12.326667 3.4399998,13.14 c -2e-7,1.093334 0.4133332,1.64 1.24,1.64 0.8399997,0 1.5466667,-0.46 2.1199999,-1.38 0.08,-0.12 0.1333337,-0.22 0.1600003,-0.3 0.2933331,-1.319999 0.7933331,-3.3266665 1.5,-6.0199996 0.1066666,-0.4666667 0.3666659,-0.7000003 0.7799998,-0.7000003 0.333333,0.066667 0.5266666,0.2466669 0.5799999,0.54 0,-0.026667 -0.1000004,0.4200001 -0.3000002,1.3400001 C 9.3333321,8.9400005 9.2199993,9.3933334 9.1799994,9.6199999 L 8.6199999,11.78 c -0.2666664,1.160001 -0.3999996,1.853333 -0.3999996,2.08 0,0.613333 0.206666,0.92 0.6199999,0.92 0.5599994,0 1.0199985,-0.666666 1.3799988,-2 0.04,-0.133333 0.08,-0.293333 0.120001,-0.48 0.106667,-0.226666 0.199999,-0.346666 0.28,-0.359999 0.159999,0 0.239999,0.06667 0.24,0.199999 -10e-7,0.2 -0.12,0.666667 -0.36,1.4 -0.08,0.226666 -0.16,0.42 -0.24,0.58 -0.3600004,0.733333 -0.8533342,1.1 -1.4800003,1.1 C 8.0199995,15.22 7.4799995,14.9 7.1599998,14.26 7.0933332,14.14 7.04,14.013333 7,13.88 6.3066664,14.773334 5.5133333,15.22 4.6199999,15.22 3.54,15.22 2.8066664,14.826667 2.4199998,14.04 c -0.1733334,-0.346666 -0.26,-0.753333 -0.26,-1.22 0,-0.72 0.3533335,-2.026667 1.0600002,-3.9200004 0.026666,-0.093332 0.06,-0.1866655 0.1,-0.2799988 0.2266667,-0.5733337 0.3399999,-1.0266671 0.3399999,-1.3600006 0,-0.4399996 -0.1666667,-0.6599998 -0.5,-0.6599998 -0.7466666,0 -1.3533332,0.6333332 -1.82,1.8999996 -0.013333,0 -0.02,0.00667 -0.02,0.020001 V 8.54 C 1.2533333,8.7133341 1.1933334,8.8933334 1.14,9.0799999 0.99333328,9.3066673 0.88666666,9.4266663 0.81999999,9.4400005 0.65999997,9.4400005 0.57999992,9.373333 0.57999998,9.2399998 0.57999992,9 0.71999997,8.5799999 1,7.98 1.5866666,6.7666664 2.3266666,6.1599998 3.22,6.1599998 Z" />
          <path
             id="path1074"
             fill="#000000"
             d="m 17.86916,0 c 0.133333,9.5367432e-7 0.2,0.06666756 0.2,0.2000007 0,0.0666667 -0.08667,0.18000037 -0.260002,0.3399992 C 15.662493,2.7266674 14.589159,5.8800011 14.589159,10 c 0,4.106667 1.046667,7.226667 3.140001,9.360001 0.226666,0.226665 0.34,0.373333 0.34,0.439998 0,0.133333 -0.06667,0.200001 -0.2,0.200001 -0.16,0 -0.513335,-0.273335 -1.060002,-0.82 -0.826666,-0.826667 -1.513332,-1.806667 -2.059998,-2.94 -0.88,-1.813334 -1.320001,-3.893334 -1.320001,-6.24 0,-2.2533331 0.42,-4.2866669 1.26,-6.0999994 0.693333,-1.4799996 1.573334,-2.666667 2.64,-3.56000051 C 17.609159,0.11333466 17.789158,9.5367432e-7 17.86916,0 Z" />
          <path
             id="path1076"
             fill="#000000"
             d="m 23.74696,2.4800005 c 0.346666,9e-7 0.539999,0.1800013 0.58,0.54 -2e-6,0.08 -0.273335,1.2000007 -0.820002,3.3599996 h 1.760002 c 0.346665,0 0.533333,0.073334 0.56,0.2200003 C 25.826958,6.8400002 25.720291,6.9733334 25.506958,7 h -0.02 -0.26 -1.880001 l -1.479999,5.9 c -0.08,0.333334 -0.119999,0.653333 -0.119999,0.96 0,0.613333 0.206665,0.92 0.619999,0.92 0.880001,0 1.653333,-0.646667 2.319999,-1.94 l 0.280001,-0.62 c 0.08,-0.173333 0.18,-0.266666 0.300001,-0.279999 0.159998,0 0.239998,0.06667 0.239998,0.199999 0,0.173334 -0.173332,0.553334 -0.519999,1.14 -0.773334,1.293334 -1.660001,1.94 -2.659999,1.94 -0.773335,0 -1.32,-0.32 -1.640002,-0.96 -0.133333,-0.266666 -0.199999,-0.56 -0.199999,-0.88 0,-0.253333 0.406666,-1.98 1.22,-5.1799992 L 22.00696,7 h -1.76 C 19.913626,7 19.733625,6.9466667 19.706959,6.8400002 h -0.02 v -0.08 c 0,-0.2266664 0.106667,-0.3533334 0.320002,-0.3800001 h 0.279999 1.880001 L 22.94696,3.1999998 c 0.12,-0.4666662 0.386667,-0.706666 0.8,-0.7199993 z" />
          <path
             id="path1078"
             fill="#000000"
             d="m 27.789221,0 c 0.16,9.5367432e-7 0.513332,0.2733345 1.059999,0.82000077 C 29.675888,1.6466675 30.362555,2.626667 30.909222,3.7600002 31.789221,5.5733337 32.229221,7.6533337 32.229221,10 c 0,2.253333 -0.420002,4.286667 -1.26,6.1 -0.693334,1.48 -1.573334,2.666666 -2.640001,3.56 -0.279999,0.226665 -0.459999,0.34 -0.539999,0.34 -0.133333,0 -0.200001,-0.06667 -0.200001,-0.200001 0,-0.06667 0.08667,-0.18 0.26,-0.34 C 29.995888,17.273333 31.069221,14.12 31.069221,10 c 0,-4.0666656 -1.000001,-7.1466656 -3,-9.23999965 l -0.1,-0.1000005 C 27.715887,0.42000008 27.58922,0.26666737 27.58922,0.2000007 27.58922,0.06666756 27.655888,9.5367432e-7 27.789221,0 Z" />
          <path
             id="path1080"
             fill="#000000"
             d="m 41.582592,11.54 h 11.939999 c 0.426666,0 0.653335,0.133333 0.68,0.400001 0,0.266666 -0.220001,0.399999 -0.66,0.399999 H 41.562592 c -0.426667,0 -0.646668,-0.133333 -0.66,-0.399999 0,-0.266668 0.226669,-0.400001 0.68,-0.400001 z m -0.02,-3.8799997 h 11.979999 c 0.42667,0 0.646668,0.1333332 0.66,0.3999992 0,0.2666673 -0.226666,0.4000005 -0.68,0.4000005 H 41.582592 c -0.426666,0 -0.653332,-0.1333332 -0.68,-0.4000005 0,-0.266666 0.220001,-0.3999992 0.66,-0.3999992 z" />
          <path
             id="path1082"
             fill="#000000"
             d="m 65.91378,6.04 c 1.106667,9e-7 1.953339,0.3000002 2.540001,0.9000005 0.346672,0.3600002 0.520004,0.7733336 0.520004,1.2399998 0,0.5066671 -0.220001,0.8133335 -0.660003,0.9200001 -0.08,0.013333 -0.166664,0.02 -0.259995,0.02 -0.466667,0 -0.760002,-0.213334 -0.880005,-0.6400013 -0.02666,-0.079999 -0.04,-0.1733322 -0.04,-0.2799987 0,-0.4800005 0.233338,-0.7733336 0.700005,-0.8800006 0.07999,-0.026666 0.159996,-0.039999 0.239998,-0.04 C 67.593781,6.7866669 66.880447,6.54 65.933784,6.54 c -0.840003,0 -1.513336,0.4000005 -2.02,1.2000002 -0.453335,0.7200008 -0.68,1.686667 -0.68,2.8999988 0,1.92 0.573333,3.180001 1.719997,3.780001 0.360001,0.2 0.726669,0.3 1.100006,0.3 1.306664,0 2.179993,-0.7 2.619995,-2.1 0.04,-0.133333 0.126664,-0.2 0.260002,-0.2 0.173333,0 0.260003,0.06667 0.260003,0.2 0,0.253333 -0.146668,0.613334 -0.440003,1.08 -0.653335,1.013333 -1.613334,1.52 -2.879997,1.52 -1.253334,0 -2.313335,-0.493334 -3.180004,-1.48 -0.746666,-0.866667 -1.119999,-1.886667 -1.119999,-3.06 0,-1.3733327 0.473331,-2.5199992 1.419998,-3.4399998 C 63.807117,6.4400005 64.780449,6.0400009 65.91378,6.04 Z" />
          <path
             id="path1084"
             fill="#000000"
             d="m 74.762711,6.4800005 c -0.826668,0 -1.506669,0.333333 -2.040001,0.9999995 -0.09334,0.1066671 -0.173333,0.2200003 -0.240006,0.3400002 -0.32,0.5866675 -0.479996,1.5000004 -0.479996,2.7399988 0,1.293334 0.166665,2.233334 0.5,2.820001 0.559998,0.866667 1.32,1.313334 2.279999,1.34 0.893334,0 1.599999,-0.373334 2.120003,-1.12 l 0.199997,-0.36 c 0.293335,-0.586666 0.440002,-1.48 0.440002,-2.680001 0,-1.2799983 -0.173339,-2.2066646 -0.520004,-2.7799988 C 76.449371,6.9533329 75.696037,6.5200005 74.762711,6.4800005 Z M 74.782707,6.04 c 1.293335,9e-7 2.379997,0.5133333 3.260002,1.5400004 0.773331,0.893333 1.159996,1.9400001 1.159996,3.1399996 0,1.373333 -0.506668,2.506666 -1.519996,3.4 -0.840004,0.733333 -1.813339,1.1 -2.919998,1.1 -1.280007,0 -2.360001,-0.48 -3.240006,-1.44 -0.786667,-0.866666 -1.18,-1.886667 -1.18,-3.06 0,-1.3599994 0.486671,-2.5066659 1.459999,-3.4399998 C 72.642708,6.4533339 73.63604,6.0400009 74.782707,6.04 Z" />
          <path
             id="path1086"
             fill="#000000"
             d="m 83.642746,6.04 c 0.746666,9e-7 1.373329,0.1866674 1.879997,0.5600004 C 85.669411,6.4800005 85.782745,6.373333 85.862747,6.2799997 86.036079,6.1200008 86.169411,6.0400009 86.262749,6.04 86.39608,6.1599998 86.469414,6.3200006 86.482742,6.5200005 V 8.54 c 0,0.2800006 -0.03999,0.4333334 -0.119995,0.46 h -0.02 l -0.02,0.020001 h -0.1 c -0.146668,0 -0.22667,-0.06 -0.240006,-0.1800003 -0.09333,-1.3466659 -0.646667,-2.1333323 -1.659996,-2.3599997 -0.213333,-0.04 -0.440002,-0.06 -0.68,-0.06 -1.253334,0 -1.986664,0.3866672 -2.199997,1.1600003 -0.02667,0.1199999 -0.04,0.2399998 -0.04,0.3599997 0,0.6800007 0.513329,1.1600003 1.540001,1.44 0.199997,0.053333 0.50666,0.1199999 0.919998,0.1999998 0.959999,0.1866665 1.646668,0.4466672 2.059998,0.7800012 0.08,0.05333 0.153335,0.113332 0.220001,0.179999 0.559998,0.56 0.839996,1.193334 0.839996,1.900001 0,1.133333 -0.466667,1.933332 -1.399994,2.399999 -0.506668,0.253333 -1.113334,0.38 -1.819999,0.38 -0.866669,0 -1.600006,-0.286667 -2.200005,-0.86 l -0.400001,0.46 c -0.266663,0.266667 -0.433335,0.4 -0.5,0.4 -0.133332,-0.12 -0.206665,-0.28 -0.219994,-0.48 V 12.1 c 0,-0.293333 0.04666,-0.453333 0.139999,-0.48 l 0.02,-0.02 h 0.1 c 0.133331,0 0.220001,0.07333 0.260002,0.22 0,0.02667 0.0067,0.06667 0.02,0.120001 0.346672,1.546666 1.006668,2.459999 1.980004,2.739999 0.239998,0.06667 0.506668,0.1 0.800003,0.1 1.199997,0 1.926666,-0.42 2.18,-1.26 0.05333,-0.173334 0.07999,-0.36 0.07999,-0.56 0,-0.973333 -0.693329,-1.586667 -2.079994,-1.84 C 82.796086,10.893333 82.042751,10.673334 81.682751,10.46 81.54942,10.39333 81.422749,10.306667 81.302746,10.200001 80.729408,9.7333336 80.442749,9.166667 80.442749,8.5 c 0,-0.9333324 0.41333,-1.6133327 1.239998,-2.04 0.519997,-0.2799997 1.173332,-0.4199991 1.959999,-0.42 z" />
          <path
             id="path1088"
             fill="#000000"
             d="m 94.091644,0 c 0.133332,9.5367432e-7 0.200005,0.06666756 0.200005,0.2000007 0,0.0666667 -0.08667,0.18000037 -0.260002,0.3399992 C 91.884979,2.7266674 90.811646,5.8800011 90.811646,10 c 0,4.106667 1.046669,7.226667 3.139999,9.360001 0.226669,0.226665 0.340004,0.373333 0.340004,0.439998 0,0.133333 -0.06667,0.200001 -0.200005,0.200001 -0.159996,0 -0.513336,-0.273335 -1.059997,-0.82 -0.826668,-0.826667 -1.513336,-1.806667 -2.059998,-2.94 -0.880005,-1.813334 -1.32,-3.893334 -1.32,-6.24 0,-2.2533331 0.419999,-4.2866669 1.259995,-6.0999994 C 91.60498,2.420001 92.484978,1.2333336 93.551643,0.34000009 93.831642,0.11333466 94.011642,9.5367432e-7 94.091644,0 Z" />
          <path
             id="path1090"
             fill="#000000"
             d="m 99.969444,2.4800005 c 0.346676,9e-7 0.540006,0.1800013 0.580006,0.54 0,0.08 -0.27333,1.2000007 -0.820004,3.3599996 h 1.760004 c 0.34666,0 0.53333,0.073334 0.56,0.2200003 0,0.2399998 -0.10667,0.373333 -0.32,0.3999996 h -0.02 -0.26 -1.88 l -1.480003,5.9 c -0.08,0.333334 -0.120003,0.653333 -0.120003,0.96 0,0.613333 0.206673,0.92 0.620003,0.92 0.879997,0 1.653333,-0.646667 2.320003,-1.94 l 0.28,-0.62 c 0.08,-0.173333 0.18,-0.266666 0.3,-0.279999 0.15999,0 0.24,0.06667 0.24,0.199999 0,0.173334 -0.17334,0.553334 -0.52,1.14 -0.77334,1.293334 -1.660004,1.94 -2.660004,1.94 -0.773331,0 -1.32,-0.32 -1.639999,-0.96 -0.133332,-0.266666 -0.199997,-0.56 -0.199997,-0.88 0,-0.253333 0.406662,-1.98 1.220001,-5.1799992 L 98.229446,7 H 96.469444 C 96.136116,7 95.956116,6.9466667 95.929451,6.8400002 h -0.02 v -0.08 c 0,-0.2266664 0.106666,-0.3533334 0.319999,-0.3800001 h 0.279999 1.880005 l 0.779999,-3.1800003 c 0.119995,-0.4666662 0.386665,-0.706666 0.799995,-0.7199993 z" />
          <path
             id="path1092"
             fill="#000000"
             d="m 104.0117,0 c 0.16001,9.5367432e-7 0.51334,0.2733345 1.06001,0.82000077 0.82667,0.82666673 1.51333,1.80666623 2.06,2.93999943 0.87999,1.8133335 1.32,3.8933335 1.32,6.2399998 0,2.253333 -0.42,4.286667 -1.26001,6.1 -0.69333,1.48 -1.57332,2.666666 -2.64,3.56 -0.27999,0.226665 -0.45999,0.34 -0.54,0.34 -0.13333,0 -0.19999,-0.06667 -0.19999,-0.200001 0,-0.06667 0.0867,-0.18 0.26,-0.34 2.14667,-2.186666 3.22,-5.339999 3.22,-9.459999 0,-4.0666656 -1,-7.1466656 -3,-9.23999965 L 104.1917,0.65999985 C 103.93838,0.42000008 103.81171,0.26666737 103.81171,0.2000007 103.81171,0.06666756 103.87837,9.5367432e-7 104.0117,0 Z" />
        </svg>
      </g>
      <text
         xml:space="preserve"
         style="font-style:normal;font-variant:normal;font-weight:normal;font-stretch:normal;font-size:33.633px;line-height:17.7976px;font-family:Enriqueta;-inkscape-font-specification:Enriqueta;text-align:center;letter-spacing:0px;word-spacing:0px;text-anchor:middle;stroke-width:1.57655"
         x="280.45834"
         y="238.125"
         id="text1281"><tspan
           sodipodi:role="line"
           id="tspan1279"
           x="280.45834"
           y="238.125"
           style="font-style:normal;font-variant:normal;font-weight:normal;font-stretch:normal;font-family:Enriqueta;-inkscape-font-specification:Enriqueta;text-align:center;text-anchor:middle;stroke-width:1.57655">Signal</tspan></text>
    </g>
  </g>
  <g
     style="display:inline"
     inkscape:label="Curves"
     id="layer3"
     inkscape:groupmode="layer">
    <path
       id="path1452"
       title="-cos(x)"
       d="m 190.22818,102.23617 c 0.752,0 1.504,-0.247 2.257,-0.729 0.752,-0.482 1.504,-1.199 2.256,-2.111002 0.753,-0.911 1.505,-2.019 2.257,-3.262 0.752,-1.243 1.505,-2.621 2.257,-4.06 0.752,-1.44 1.504,-2.939 2.256,-4.419 0.753,-1.4798 1.505,-2.9386 2.257,-4.2984 0.752,-1.3598 1.505,-2.6195 2.257,-3.712 0.752,-1.0925 1.504,-2.0165 2.257,-2.7234 0.752,-0.7069 1.504,-1.1951 2.256,-1.4397 0.753,-0.2446 1.505,-0.2441 2.257,0 0.752,0.2441 1.505,0.7333 2.257,1.4397 0.752,0.7064 1.504,1.6312 2.256,2.7234 0.753,1.0922 1.505,2.3524 2.257,3.712 0.752,1.3596 1.505,2.8186 2.257,4.2984 0.752,1.48 1.504,2.979 2.257,4.419 0.752,1.439 1.504,2.817 2.256,4.06 0.753,1.243 1.505,2.35 2.257,3.262 0.752,0.912002 1.504,1.628002 2.257,2.111002 0.752,0.482 1.504,0.729 2.256,0.729"
       style="fill:none;stroke:#000000;stroke-width:1.11117" />
    <path
       style="fill:none;stroke:#000000;stroke-width:1.11117"
       d="m 444.22795,88.768418 c 0.7522,-1.4846 1.5044,-2.969 2.2567,-4.3733 0.7522,-1.4044 1.5044,-2.7278 2.2567,-3.8996 0.7522,-1.1718 1.5045,-2.1908 2.2567,-3.003 0.7522,-0.8123 1.5045,-1.4164 2.2567,-1.7811 0.7522,-0.3648 1.5045,-0.4886 2.2567,-0.3662 0.7522,0.1224 1.5045,0.4923 2.2567,1.0885 0.7522,0.5962 1.5045,1.4197 2.2567,2.4251 0.7523,1.0054 1.5045,2.1934 2.2567,3.499 0.7523,1.3057 1.5045,2.7293 2.2567,4.1938 0.7523,1.4648 1.5045,2.9698 2.2567,4.4338 0.7523,1.465 1.5045,2.888 2.2567,4.194 0.7523,1.306 1.5045,2.493 2.2568,3.499 0.7522,1.006 1.5044,1.828002 2.2567,2.425002 0.7522,0.597 1.5044,0.966 2.2567,1.089 0.7522,0.122 1.5044,-0.002 2.2567,-0.367 0.7522,-0.364 1.5044,-0.969 2.2567,-1.781 0.7522,-0.812002 1.5041,-1.831002 2.2571,-3.003002 0.752,-1.171 1.504,-2.495 2.256,-3.899 0.753,-1.405 1.505,-2.889 2.257,-4.374"
       title="sin(x)"
       id="path1301" />
  </g>
  <g
     inkscape:label="Ebene 1"
     id="layer1-6"
     transform="translate(49.727084,183.88543)" />
</svg>
