<?xml version="1.0" encoding="UTF-8" standalone="no"?>
<svg
   xmlns:dc="http://purl.org/dc/elements/1.1/"
   xmlns:cc="http://creativecommons.org/ns#"
   xmlns:rdf="http://www.w3.org/1999/02/22-rdf-syntax-ns#"
   xmlns:svg="http://www.w3.org/2000/svg"
   xmlns="http://www.w3.org/2000/svg"
   xmlns:xlink="http://www.w3.org/1999/xlink"
   xmlns:sodipodi="http://sodipodi.sourceforge.net/DTD/sodipodi-0.dtd"
   xmlns:inkscape="http://www.inkscape.org/namespaces/inkscape"
   inkscape:export-ydpi="264.14999"
   inkscape:export-xdpi="264.14999"
   inkscape:export-filename="D:\Ralf Gerlich\Videos\MoDyPy\Tutorials\04_Bouncing_Ball\GRAPHICS\04_bouncing_ball.png"
   width="57.693901mm"
   height="57.710213mm"
   viewBox="0 0 57.693901 57.710213"
   version="1.1"
   id="svg8"
   inkscape:version="1.0 (4035a4fb49, 2020-05-01)"
   sodipodi:docname="04_bouncing_ball.svg">
  <defs
     id="defs2">
    <marker
       inkscape:stockid="Arrow1Lend"
       orient="auto"
       refY="0"
       refX="0"
       id="Arrow1Lend"
       style="overflow:visible"
       inkscape:isstock="true">
      <path
         id="path949"
         d="M 0,0 5,-5 -12.5,0 5,5 Z"
         style="fill:#000000;fill-opacity:1;fill-rule:evenodd;stroke:#000000;stroke-width:1pt;stroke-opacity:1"
         transform="matrix(-0.8,0,0,-0.8,-10,0)" />
    </marker>
    <marker
       inkscape:stockid="Arrow1Mstart"
       orient="auto"
       refY="0"
       refX="0"
       id="Arrow1Mstart"
       style="overflow:visible"
       inkscape:isstock="true">
      <path
         id="path952"
         d="M 0,0 5,-5 -12.5,0 5,5 Z"
         style="fill:#000000;fill-opacity:1;fill-rule:evenodd;stroke:#000000;stroke-width:1pt;stroke-opacity:1"
         transform="matrix(0.4,0,0,0.4,4,0)" />
    </marker>
    <marker
       inkscape:stockid="Arrow2Mend"
       orient="auto"
       refY="0"
       refX="0"
       id="Arrow2Mend"
       style="overflow:visible"
       inkscape:isstock="true">
      <path
         id="path973"
         style="fill:#000000;fill-opacity:1;fill-rule:evenodd;stroke:#000000;stroke-width:0.625;stroke-linejoin:round;stroke-opacity:1"
         d="M 8.7185878,4.0337352 -2.2072895,0.01601326 8.7185884,-4.0017078 c -1.7454984,2.3720609 -1.7354408,5.6174519 -6e-7,8.035443 z"
         transform="scale(-0.6)" />
    </marker>
    <linearGradient
       id="linearGradient876"
       inkscape:collect="always">
      <stop
         id="stop872"
         offset="0"
         style="stop-color:#ffffff;stop-opacity:1" />
      <stop
         id="stop874"
         offset="1"
         style="stop-color:#006300;stop-opacity:1" />
    </linearGradient>
    <linearGradient
       inkscape:collect="always"
       id="linearGradient849">
      <stop
         style="stop-color:#ffffff;stop-opacity:1"
         offset="0"
         id="stop845" />
      <stop
         style="stop-color:#006300;stop-opacity:1"
         offset="1"
         id="stop847" />
    </linearGradient>
    <radialGradient
       inkscape:collect="always"
       xlink:href="#linearGradient849"
       id="radialGradient851"
       cx="36.512493"
       cy="187.85417"
       fx="36.512493"
       fy="187.85417"
       r="5.4416666"
       gradientUnits="userSpaceOnUse"
       gradientTransform="matrix(0.99999726,0,0,0.99999716,1.0702288e-4,5.3423242e-4)" />
    <radialGradient
       inkscape:collect="always"
       xlink:href="#linearGradient876"
       id="radialGradient859"
       cx="36.512501"
       cy="187.85417"
       fx="36.512501"
       fy="187.85417"
       r="5.4416666"
       gradientUnits="userSpaceOnUse"
       gradientTransform="matrix(0.99999702,0,0,0.99999702,1.0926168e-4,5.598093e-4)" />
  </defs>
  <sodipodi:namedview
     id="base"
     pagecolor="#ffffff"
     bordercolor="#666666"
     borderopacity="1.0"
     inkscape:pageopacity="0.0"
     inkscape:pageshadow="2"
     inkscape:zoom="1.4"
     inkscape:cx="115.50007"
     inkscape:cy="126.13558"
     inkscape:document-units="mm"
     inkscape:current-layer="layer1"
     inkscape:document-rotation="0"
     showgrid="true"
     inkscape:window-width="1920"
     inkscape:window-height="1046"
     inkscape:window-x="-11"
     inkscape:window-y="-11"
     inkscape:window-maximized="1"
     inkscape:snap-text-baseline="true"
     fit-margin-top="0"
     fit-margin-left="0"
     fit-margin-right="0"
     fit-margin-bottom="0">
    <inkscape:grid
       type="xygrid"
       id="grid833"
       originx="-8.4519319"
       originy="-184.45692" />
  </sodipodi:namedview>
  <metadata
     id="metadata5">
    <rdf:RDF>
      <cc:Work
         rdf:about="">
        <dc:format>image/svg+xml</dc:format>
        <dc:type
           rdf:resource="http://purl.org/dc/dcmitype/StillImage" />
        <dc:title></dc:title>
      </cc:Work>
    </rdf:RDF>
  </metadata>
  <g
     inkscape:label="Ebene 1"
     inkscape:groupmode="layer"
     id="layer1"
     transform="translate(-8.4519321,-184.45692)">
    <circle
       style="fill:url(#radialGradient851);fill-opacity:1;stroke:url(#radialGradient859);stroke-width:0.3;stroke-miterlimit:4;stroke-dasharray:none;stroke-opacity:0"
       id="path835"
       cx="34.395832"
       cy="190.5"
       r="5.2916665" />
    <path
       style="fill:none;stroke:#b3b3b3;stroke-width:0.3;stroke-linecap:butt;stroke-linejoin:miter;stroke-miterlimit:4;stroke-dasharray:none;stroke-opacity:1"
       d="m 26.458333,238.125 h 39.6875"
       id="path878"
       sodipodi:nodetypes="cc" />
    <path
       style="fill:none;stroke:#b3b3b3;stroke-width:0.264583px;stroke-linecap:butt;stroke-linejoin:miter;stroke-opacity:1"
       d="m 30.427083,238.125 -2.645833,3.96875"
       id="path880" />
    <path
       id="path882"
       d="m 33.072917,238.125 -2.645833,3.96875"
       style="fill:none;stroke:#b3b3b3;stroke-width:0.264583px;stroke-linecap:butt;stroke-linejoin:miter;stroke-opacity:1" />
    <path
       id="path884"
       d="m 35.71875,238.125 -2.645833,3.96875"
       style="fill:none;stroke:#b3b3b3;stroke-width:0.264583px;stroke-linecap:butt;stroke-linejoin:miter;stroke-opacity:1" />
    <path
       style="fill:none;stroke:#b3b3b3;stroke-width:0.264583px;stroke-linecap:butt;stroke-linejoin:miter;stroke-opacity:1"
       d="m 38.364584,238.125 -2.645833,3.96875"
       id="path886" />
    <path
       id="path888"
       d="m 41.010416,238.125 -2.645833,3.96875"
       style="fill:none;stroke:#b3b3b3;stroke-width:0.264583px;stroke-linecap:butt;stroke-linejoin:miter;stroke-opacity:1" />
    <path
       style="fill:none;stroke:#b3b3b3;stroke-width:0.264583px;stroke-linecap:butt;stroke-linejoin:miter;stroke-opacity:1"
       d="m 43.65625,238.125 -2.645833,3.96875"
       id="path890" />
    <path
       style="fill:none;stroke:#b3b3b3;stroke-width:0.264583px;stroke-linecap:butt;stroke-linejoin:miter;stroke-opacity:1"
       d="m 46.302083,238.125 -2.645833,3.96875"
       id="path892" />
    <path
       id="path894"
       d="m 48.947917,238.125 -2.645833,3.96875"
       style="fill:none;stroke:#b3b3b3;stroke-width:0.264583px;stroke-linecap:butt;stroke-linejoin:miter;stroke-opacity:1" />
    <path
       id="path896"
       d="m 51.593749,238.125 -2.645833,3.96875"
       style="fill:none;stroke:#b3b3b3;stroke-width:0.264583px;stroke-linecap:butt;stroke-linejoin:miter;stroke-opacity:1" />
    <path
       style="fill:none;stroke:#b3b3b3;stroke-width:0.264583px;stroke-linecap:butt;stroke-linejoin:miter;stroke-opacity:1"
       d="m 54.239583,238.125 -2.645833,3.96875"
       id="path898" />
    <path
       style="fill:none;stroke:#b3b3b3;stroke-width:0.264583px;stroke-linecap:butt;stroke-linejoin:miter;stroke-opacity:1"
       d="m 56.885416,238.125 -2.645833,3.96875"
       id="path900" />
    <path
       id="path902"
       d="m 59.53125,238.125 -2.645833,3.96875"
       style="fill:none;stroke:#b3b3b3;stroke-width:0.264583px;stroke-linecap:butt;stroke-linejoin:miter;stroke-opacity:1" />
    <path
       style="fill:none;stroke:#b3b3b3;stroke-width:0.264583px;stroke-linecap:butt;stroke-linejoin:miter;stroke-opacity:1"
       d="m 62.177082,238.125 -2.645833,3.96875"
       id="path904" />
    <path
       id="path906"
       d="m 64.822916,238.125 -2.645833,3.96875"
       style="fill:none;stroke:#b3b3b3;stroke-width:0.264583px;stroke-linecap:butt;stroke-linejoin:miter;stroke-opacity:1" />
    <path
       style="fill:none;stroke:#000000;stroke-width:0.3;stroke-linecap:butt;stroke-linejoin:miter;stroke-miterlimit:4;stroke-dasharray:none;stroke-opacity:1;marker-start:url(#Arrow1Mstart);marker-end:url(#Arrow2Mend)"
       d="m 44.979167,190.5 v 47.625"
       id="path944" />
    <path
       style="fill:none;stroke:#000000;stroke-width:0.264583px;stroke-linecap:butt;stroke-linejoin:miter;stroke-opacity:1"
       d="m 34.395833,190.5 h 11.90625"
       id="path1260" />
  </g>
  <g
     id="g1324"
     transform="matrix(0.375,0,0,0.375,38.928485,24.322252)">
    <svg
       id="svg1322"
       version="1.1"
       width="100%"
       height="100%">
      <path
         id="path1314"
         fill="#000000"
         d="m 5.48,1.1199999 c 0.1733332,0 0.2599998,0.073334 0.2599998,0.2200003 l -1.56,6.3600001 C 5.0066667,6.6733341 5.9933333,6.1599998 7.1399999,6.1599998 c 1.186666,0 1.9199996,0.460001 2.2000003,1.3800002 v 0.02 c 0.066666,0.226667 0.099998,0.4733339 0.099999,0.7400003 -1e-6,0.7466669 -0.4066668,2.2133327 -1.2199993,4.3999997 -0.2400008,0.586667 -0.3600011,1.06 -0.3600006,1.42 -5e-7,0.44 0.1599998,0.66 0.4800005,0.66 0.8266658,0 1.4799995,-0.733333 1.9600002,-2.2 l 0.08,-0.28 c 0.06667,-0.213333 0.133332,-0.326667 0.2,-0.34 v -0.02 h 0.1 c 0.160001,0 0.240001,0.06667 0.240001,0.199999 0,0.226667 -0.14,0.646667 -0.42,1.26 -0.5733341,1.213334 -1.3066677,1.82 -2.2000002,1.82 -0.6800003,0 -1.166667,-0.286667 -1.4600005,-0.86 -0.1200004,-0.24 -0.1799999,-0.5 -0.1799999,-0.78 0,-0.24 0.086667,-0.606667 0.2600003,-1.1 C 7.7466664,10.373333 8.1599998,8.8800001 8.1599998,8 c 0,-0.9333329 -0.3600001,-1.3999996 -1.0799999,-1.3999996 -0.6400003,0 -1.2800007,0.2333336 -1.9200001,0.6999998 -0.4933333,0.3866668 -0.9266667,0.96 -1.2999999,1.7200003 L 3.8,9.1400003 C 3.7466664,9.46 3.6733332,9.7600002 3.5799999,10.04 3.5133333,10.346666 3.4000001,10.793333 3.24,11.38 L 2.8,13.18 2.4199998,14.7 C 2.3266664,14.98 2.1199999,15.146667 1.8,15.2 1.76,15.213333 1.72,15.22 1.6799998,15.22 1.3599999,15.22 1.1733332,15.08 1.12,14.8 1.106667,14.74667 1.1,14.7 1.1,14.66 c 0,-0.106667 0.026667,-0.253333 0.08,-0.44 l 2.8999998,-11.5200002 0.06,-0.3999996 c 0,-0.1466665 -0.093334,-0.2399998 -0.28,-0.2799997 -0.1600001,-0.04 -0.4000001,-0.059999 -0.72,-0.060001 -0.2933333,1.1e-6 -0.4533334,-0.079999 -0.4800001,-0.2399996 0,-0.2266665 0.1266666,-0.3599997 0.3800002,-0.3999998 z" />
      <path
         id="path1316"
         fill="#000000"
         d="m 17.94319,0 c 0.133333,9.5367432e-7 0.199998,0.06666756 0.199998,0.2000007 0,0.0666667 -0.08667,0.18000037 -0.259998,0.3399992 C 15.736523,2.7266674 14.663189,5.8800011 14.663189,10 c 0,4.106667 1.046667,7.226667 3.139999,9.360001 0.226668,0.226665 0.34,0.373333 0.34,0.439998 0,0.133333 -0.06666,0.200001 -0.199998,0.200001 -0.160002,0 -0.513335,-0.273335 -1.06,-0.82 -0.826668,-0.826667 -1.513334,-1.806667 -2.06,-2.94 -0.88,-1.813334 -1.320001,-3.893334 -1.320001,-6.24 0,-2.2533331 0.42,-4.2866669 1.26,-6.0999994 0.693333,-1.4799996 1.573334,-2.666667 2.64,-3.56000051 C 17.683189,0.11333466 17.86319,9.5367432e-7 17.94319,0 Z" />
      <path
         id="path1318"
         fill="#000000"
         d="m 23.82099,2.4800005 c 0.346666,9e-7 0.539999,0.1800013 0.58,0.54 0,0.08 -0.273335,1.2000007 -0.82,3.3599996 h 1.759998 c 0.346668,0 0.533333,0.073334 0.560002,0.2200003 0,0.2399998 -0.106667,0.373333 -0.32,0.3999996 h -0.02 -0.26 -1.879999 l -1.480001,5.9 c -0.08,0.333334 -0.119999,0.653333 -0.119999,0.96 0,0.613333 0.206667,0.92 0.619999,0.92 0.879999,0 1.653333,-0.646667 2.320001,-1.94 l 0.279999,-0.62 c 0.08,-0.173333 0.18,-0.266666 0.299999,-0.279999 0.16,0 0.24,0.06667 0.240002,0.199999 -2e-6,0.173334 -0.173334,0.553334 -0.520001,1.14 -0.773334,1.293334 -1.659999,1.94 -2.659999,1.94 -0.773335,0 -1.32,-0.32 -1.640002,-0.96 -0.133333,-0.266666 -0.199999,-0.56 -0.199999,-0.88 0,-0.253333 0.406666,-1.98 1.22,-5.1799992 L 22.08099,7 h -1.76 C 19.987656,7 19.807655,6.9466667 19.780989,6.8400002 h -0.02 v -0.08 c 0,-0.2266664 0.106669,-0.3533334 0.320002,-0.3800001 h 0.279999 1.880001 l 0.779998,-3.1800003 c 0.120001,-0.4666662 0.386668,-0.706666 0.800002,-0.7199993 z" />
      <path
         id="path1320"
         fill="#000000"
         d="m 27.863251,0 c 0.16,9.5367432e-7 0.513332,0.2733345 1.059999,0.82000077 0.826666,0.82666673 1.513334,1.80666623 2.06,2.93999943 0.880001,1.8133335 1.319999,3.8933335 1.319999,6.2399998 0,2.253333 -0.419998,4.286667 -1.259998,6.1 -0.693335,1.48 -1.573334,2.666666 -2.640001,3.56 -0.279999,0.226665 -0.459999,0.34 -0.539999,0.34 -0.133333,0 -0.200001,-0.06667 -0.200001,-0.200001 0,-0.06667 0.08667,-0.18 0.26,-0.34 2.146668,-2.186666 3.22,-5.339999 3.22,-9.459999 0,-4.0666656 -1,-7.1466656 -2.999999,-9.23999965 l -0.1,-0.1000005 C 27.789917,0.42000008 27.66325,0.26666737 27.66325,0.2000007 27.66325,0.06666756 27.729918,9.5367432e-7 27.863251,0 Z" />
    </svg>
  </g>
  <path
     style="fill:none;stroke:#000000;stroke-width:0.264583px;stroke-linecap:butt;stroke-linejoin:miter;stroke-opacity:1;marker-end:url(#Arrow1Lend)"
     d="M 25.943901,6.0430816 V 28.532662"
     id="path1334" />
  <g
     id="g1433"
     transform="matrix(0.375,0,0,0.375,-0.285,17.553512)">
    <svg
       id="svg1431"
       version="1.1"
       width="100%"
       height="100%">
      <path
         id="path1423"
         fill="#000000"
         d="M 4.3399997,0.06664076 H 4.6199999 14.42 c 0.32,1.05e-6 0.493332,0.04666719 0.52,0.13999954 h 0.02 c 0.02667,0.0800008 0.02667,0.21333403 0,0.40000046 L 14.559999,4.0666409 c -0.09333,0.3066663 -0.186666,0.4733333 -0.279999,0.5 -0.16,0 -0.24,-0.08 -0.24,-0.2400008 0,-0.066666 0.01333,-0.1866655 0.04,-0.3599996 0.04,-0.3599997 0.06,-0.7199993 0.06,-1.08 -2e-6,-0.8933324 -0.226668,-1.4866657 -0.68,-1.7799997 l -0.02,-0.02 C 13.013332,0.81997395 12.273332,0.68664074 11.219999,0.68664068 H 8.5799999 c -0.4933338,6e-8 -0.7866673,0.0733338 -0.8800001,0.22000033 h -0.02 v 0.0199994 c -0.04,0.0533333 -0.073334,0.13333329 -0.1,0.23999989 v 0.02 l -0.02,0.019999 C 7.5466661,1.2599735 7.5266662,1.3466406 7.5,1.4666405 L 6.2199998,6.5466404 H 8.04 c 0.9733333,0 1.626666,-0.1799998 1.96,-0.54 l 0.02,-0.02 c 0.226666,-0.2533327 0.426666,-0.7066656 0.6,-1.3600002 0.06667,-0.2533331 0.166666,-0.3933334 0.3,-0.4200001 0.146666,0 0.226666,0.073334 0.24,0.2200003 0,0.066668 -0.02,0.1733341 -0.06,0.3199997 L 10,9.0866404 C 9.8666668,9.3533077 9.7666664,9.4933071 9.6999998,9.5066404 9.54,9.5066404 9.46,9.4266405 9.46,9.2666397 9.46,9.2133074 9.4799995,9.1399736 9.5199995,9.0466404 9.6133327,8.6466408 9.6599998,8.3199739 9.6599998,8.0666409 9.6599998,7.6799741 9.5133333,7.426641 9.2200003,7.3066406 8.9666662,7.2133074 8.5599995,7.1666403 8,7.1666403 H 6.0599999 L 4.8199997,12.146641 c -0.053333,0.2 -0.08,0.353332 -0.08,0.459999 0,0.186667 0.086667,0.3 0.2600002,0.34 0.093333,0.02667 0.2199998,0.04667 0.3800001,0.06 0.333333,0.02667 0.6799994,0.04 1.04,0.04 0.333333,0 0.52,0.0067 0.5599999,0.02 l 0.1,0.14 c 0.013333,0.02667 0.02,0.05333 0.02,0.08 0,0.253333 -0.1399999,0.38 -0.4200001,0.38 L 3.72,13.60664 H 3.7 l -2.6199999,0.06 h -0.02 c -0.2000002,0 -0.30000017,-0.08 -0.30000011,-0.239999 -6e-8,-0.226667 0.10666657,-0.353334 0.31999991,-0.380001 h 0.24 c 0.8666666,0 1.3866666,-0.09333 1.56,-0.279999 0.08,-0.09333 0.1600001,-0.280001 0.24,-0.560001 -3e-7,-0.01333 0.00667,-0.04667 0.02,-0.1 L 5.7799997,1.5266409 c 0.066667,-0.2399998 0.1,-0.4000006 0.1,-0.4800005 0,-0.22666645 -0.3066668,-0.34666634 -0.9199996,-0.35999972 h -0.02 -0.3600002 C 4.2333331,0.68664074 4.0466666,0.613307 4.02,0.46664038 4.02,0.22664165 4.1266665,0.09330845 4.3399997,0.06664076 Z" />
      <path
         id="path1425"
         fill="#000000"
         d="m 20.216711,10.20664 h 11.940001 c 0.426666,0 0.653331,0.133333 0.68,0.4 0,0.266667 -0.220001,0.4 -0.66,0.4 h -11.98 c -0.426668,0 -0.646667,-0.133333 -0.659999,-0.4 0,-0.266667 0.226665,-0.4 0.679998,-0.4 z m -0.02,-3.8799994 h 11.98 c 0.426666,0 0.646668,0.1333332 0.66,0.3999996 0,0.2666669 -0.226666,0.4000001 -0.68,0.4000001 h -11.94 c -0.426666,0 -0.653334,-0.1333332 -0.679998,-0.4000001 0,-0.2666664 0.219999,-0.3999996 0.659998,-0.3999996 z" />
      <path
         id="path1427"
         fill="#000000"
         d="m 42.207905,4.8266401 c 0.719997,0 1.253334,0.3000002 1.599998,0.9000001 0.133335,0.2533336 0.213333,0.5333338 0.240002,0.8400002 0.853332,-1.1600003 1.893333,-1.7400003 3.119999,-1.7400003 0.68,0 1.226665,0.1733342 1.639999,0.5200005 0.373333,0.3200006 0.586666,0.793334 0.640003,1.4200001 0.906662,-1.2933331 1.993332,-1.9400006 3.259999,-1.9400006 1.186664,0 1.919998,0.460001 2.200001,1.3800001 v 0.02 c 0.06667,0.226667 0.1,0.4733339 0.1,0.7400003 0,0.7066669 -0.40667,2.1733331 -1.220001,4.3999995 -0.239998,0.586667 -0.360001,1.060001 -0.360001,1.42 0,0.440001 0.160004,0.66 0.480004,0.66 0.826667,0 1.479999,-0.733333 1.959999,-2.2 l 0.08,-0.28 c 0.06667,-0.213333 0.133332,-0.326666 0.199997,-0.34 v -0.02 h 0.1 c 0.160004,10e-7 0.240002,0.06667 0.240002,0.200001 0,0.226666 -0.14,0.646666 -0.420002,1.26 -0.573334,1.213333 -1.306664,1.82 -2.199997,1.82 -0.680001,0 -1.166668,-0.286667 -1.459999,-0.860001 -0.120003,-0.24 -0.180001,-0.5 -0.180001,-0.78 0,-0.266666 0.08667,-0.633333 0.259999,-1.099999 0.826667,-2.1866667 1.240001,-3.6800005 1.240001,-4.4800007 0,-0.9333329 -0.36,-1.3999996 -1.080002,-1.3999996 -1.173332,0 -2.146667,0.6333332 -2.919998,1.8999996 -0.213333,0.3333335 -0.34,0.586667 -0.380001,0.7600002 -0.04,0.1733332 -0.439998,1.7799997 -1.200001,4.8199995 -0.146667,0.573334 -0.313331,0.92 -0.5,1.04 l -0.02,0.02 h -0.02 c -0.09333,0.05333 -0.213334,0.08 -0.359997,0.08 -0.333336,-0.06667 -0.526669,-0.246667 -0.580002,-0.54 l 0.259998,-1.180001 0.400002,-1.519999 0.560001,-2.3199999 c 0.200001,-0.7466669 0.299999,-1.3000007 0.299999,-1.6600008 0,-0.9333329 -0.36,-1.3999996 -1.080001,-1.3999996 -1.199997,0 -2.206666,0.6666669 -3.019997,2 -0.09333,0.146667 -0.173336,0.2933335 -0.240002,0.4399995 l -0.259998,1 c -0.06667,0.3066674 -0.18,0.7533341 -0.34,1.3399998 l -0.440003,1.800001 c -0.226665,0.92 -0.353332,1.413333 -0.379997,1.479999 -0.120003,0.346666 -0.366669,0.533334 -0.740002,0.560001 -0.333332,-0.06667 -0.526664,-0.246667 -0.580001,-0.54 0,0.02667 0.06,-0.260001 0.18,-0.860001 l 1.16,-4.6199994 c 0.213337,-0.8533335 0.320003,-1.4133334 0.320003,-1.6800003 0,-0.6133323 -0.206669,-0.9199996 -0.620003,-0.9199996 -0.546665,0 -0.993331,0.6333332 -1.34,1.8999996 -0.04,0.1466675 -0.08,0.3066673 -0.119999,0.48 -0.146667,0.2933335 -0.259998,0.4466672 -0.34,0.4599996 -0.16,0 -0.240001,-0.066666 -0.239998,-0.1999994 -3e-6,-0.2133331 0.126664,-0.6666665 0.379998,-1.3600001 0.08,-0.2266665 0.159999,-0.4199996 0.240001,-0.5799999 0.32,-0.6533327 0.719998,-1.0266657 1.200001,-1.1199999 0.09333,-0.013333 0.186665,-0.020001 0.279999,-0.020001 z" />
      <path
         id="path1429"
         fill="#000000"
         d="m 63.328186,5.2666407 c -0.693336,0 -1.353336,0.4466667 -1.980003,1.3399996 -0.09333,0.146667 -0.180001,0.2933336 -0.259999,0.4400001 -0.426666,0.8000002 -0.766666,1.9133339 -1.02,3.3400006 -0.06667,0.413333 -0.1,0.746666 -0.1,1 0,0.88 0.253334,1.453332 0.759999,1.719999 0.146667,0.08 0.326668,0.120001 0.540001,0.120001 0.52,0 1.060001,-0.240001 1.619999,-0.720001 0.586666,-0.506667 0.926666,-0.973333 1.02,-1.4 l 0.960003,-3.8199994 c 0.03999,-0.1599998 0.06,-0.2599997 0.06,-0.3000001 0,-0.2666669 -0.113335,-0.5866666 -0.340004,-0.9600001 C 64.428185,5.759974 64.22818,5.5599737 63.988182,5.4266405 63.788185,5.3199739 63.568184,5.2666407 63.328186,5.2666407 Z M 63.088184,4.8266401 h 0.220002 c 0.719997,0 1.299999,0.3400002 1.740001,1.0200005 l 0.119995,0.2399998 c 0.120003,-0.5066662 0.393334,-0.7933331 0.82,-0.8599997 0.346672,0 0.540001,0.1800003 0.580002,0.54 l -0.06,0.3599996 -2.220001,8.8799997 c -0.200004,0.800001 -0.720001,1.473333 -1.560001,2.02 -0.773335,0.493334 -1.666668,0.74 -2.680001,0.74 -1.639999,0 -2.52,-0.333332 -2.639999,-1 -0.01333,-0.06667 -0.02,-0.14 -0.02,-0.22 0,-0.546667 0.246666,-0.913333 0.740001,-1.1 0.119999,-0.04 0.233334,-0.06 0.34,-0.06 0.413334,0 0.66,0.179999 0.739998,0.54 0.01334,0.05333 0.02,0.106665 0.02,0.159998 0,0.426667 -0.200001,0.746668 -0.599999,0.960001 -0.06667,0.02667 -0.139999,0.05333 -0.220001,0.08 0.413334,0.133334 0.946667,0.200001 1.599999,0.200001 1.306667,0 2.266666,-0.720001 2.880001,-2.160001 l 0.659999,-2.64 -0.02,-0.02 c -0.599998,0.666667 -1.273331,1.046667 -2.019997,1.14 -0.10667,0.01333 -0.206669,0.02 -0.300003,0.02 -0.933334,0 -1.653331,-0.406666 -2.16,-1.22 -0.333332,-0.546666 -0.5,-1.193333 -0.5,-1.94 0,-1.4266658 0.506669,-2.7333327 1.520001,-3.9199996 0.933334,-1.0933333 1.940002,-1.6800003 3.02,-1.7600003 z" />
    </svg>
  </g>
  <text
     xml:space="preserve"
     style="font-size:4.23333px;line-height:2.24014px;font-family:Enriqueta;-inkscape-font-specification:Enriqueta;letter-spacing:0px;word-spacing:0px;stroke-width:0.264583"
     x="29.912649"
     y="2.0743315"
     id="text1445"><tspan
       sodipodi:role="line"
       id="tspan1443"
       x="29.912649"
       y="2.0743315"
       style="stroke-width:0.264583">m</tspan></text>
</svg>
