<?xml version="1.0" encoding="UTF-8" standalone="no"?>
<svg
   xmlns:dc="http://purl.org/dc/elements/1.1/"
   xmlns:cc="http://creativecommons.org/ns#"
   xmlns:rdf="http://www.w3.org/1999/02/22-rdf-syntax-ns#"
   xmlns:svg="http://www.w3.org/2000/svg"
   xmlns="http://www.w3.org/2000/svg"
   xmlns:sodipodi="http://sodipodi.sourceforge.net/DTD/sodipodi-0.dtd"
   xmlns:inkscape="http://www.inkscape.org/namespaces/inkscape"
   id="svg8"
   version="1.1"
   viewBox="0 0 507.99999 285.75001"
   height="1080"
   width="1920"
   inkscape:version="1.0 (4035a4fb49, 2020-05-01)"
   sodipodi:docname="Logo final.svg"
   inkscape:export-filename="C:\Users\Ralf Gerlich\Desktop\MoDyPy\Logo\Logo_256px.png"
   inkscape:export-xdpi="12.8"
   inkscape:export-ydpi="12.8">
  <defs
     id="defs2">
    <marker
       inkscape:isstock="true"
       style="overflow:visible"
       id="marker2533"
       refX="0"
       refY="0"
       orient="auto"
       inkscape:stockid="Arrow1Lend">
      <path
         transform="matrix(-0.8,0,0,-0.8,-10,0)"
         style="fill:#000000;fill-opacity:1;fill-rule:evenodd;stroke:#000000;stroke-width:1pt;stroke-opacity:1"
         d="M 0,0 5,-5 -12.5,0 5,5 Z"
         id="path2531" />
    </marker>
    <marker
       inkscape:stockid="Arrow1Lstart"
       orient="auto"
       refY="0"
       refX="0"
       id="marker2523"
       style="overflow:visible"
       inkscape:isstock="true">
      <path
         id="path2521"
         d="M 0,0 5,-5 -12.5,0 5,5 Z"
         style="fill:#000000;fill-opacity:1;fill-rule:evenodd;stroke:#000000;stroke-width:1pt;stroke-opacity:1"
         transform="matrix(0.8,0,0,0.8,10,0)" />
    </marker>
    <inkscape:path-effect
       message="Füllregel Gerade-Ungerade im &lt;b&gt;Füllung und Kontur&lt;/b&gt;-Dialog verwenden, wenn das Anwenden des Ausschnitts mit nachfolgendem Umwandeln in Pfade kein Ergebnis bringt"
       hide_clip="false"
       flatten="false"
       inverse="true"
       lpeversion="1"
       is_visible="true"
       id="path-effect2514"
       effect="powerclip" />
    <marker
       inkscape:collect="always"
       inkscape:stockid="Arrow1Lend"
       orient="auto"
       refY="0"
       refX="0"
       id="marker2420"
       style="overflow:visible"
       inkscape:isstock="true">
      <path
         id="path2418"
         d="M 0,0 5,-5 -12.5,0 5,5 Z"
         style="fill:#000000;fill-opacity:1;fill-rule:evenodd;stroke:#000000;stroke-width:1pt;stroke-opacity:1"
         transform="matrix(-0.8,0,0,-0.8,-10,0)" />
    </marker>
    <marker
       inkscape:collect="always"
       inkscape:isstock="true"
       style="overflow:visible"
       id="marker2410"
       refX="0"
       refY="0"
       orient="auto"
       inkscape:stockid="Arrow1Lstart">
      <path
         transform="matrix(0.8,0,0,0.8,10,0)"
         style="fill:#000000;fill-opacity:1;fill-rule:evenodd;stroke:#000000;stroke-width:1pt;stroke-opacity:1"
         d="M 0,0 5,-5 -12.5,0 5,5 Z"
         id="path2408" />
    </marker>
    <inkscape:path-effect
       effect="powerclip"
       id="path-effect2229"
       is_visible="true"
       lpeversion="1"
       inverse="true"
       flatten="false"
       hide_clip="false"
       message="Füllregel Gerade-Ungerade im &lt;b&gt;Füllung und Kontur&lt;/b&gt;-Dialog verwenden, wenn das Anwenden des Ausschnitts mit nachfolgendem Umwandeln in Pfade kein Ergebnis bringt" />
    <inkscape:path-effect
       message="Füllregel Gerade-Ungerade im &lt;b&gt;Füllung und Kontur&lt;/b&gt;-Dialog verwenden, wenn das Anwenden des Ausschnitts mit nachfolgendem Umwandeln in Pfade kein Ergebnis bringt"
       hide_clip="false"
       flatten="false"
       inverse="true"
       lpeversion="1"
       is_visible="true"
       id="path-effect1954"
       effect="powerclip" />
    <inkscape:path-effect
       effect="powerclip"
       id="path-effect1549"
       is_visible="true"
       lpeversion="1"
       inverse="true"
       flatten="false"
       hide_clip="false"
       message="Füllregel Gerade-Ungerade im &lt;b&gt;Füllung und Kontur&lt;/b&gt;-Dialog verwenden, wenn das Anwenden des Ausschnitts mit nachfolgendem Umwandeln in Pfade kein Ergebnis bringt" />
    <inkscape:path-effect
       message="Füllregel Gerade-Ungerade im &lt;b&gt;Füllung und Kontur&lt;/b&gt;-Dialog verwenden, wenn das Anwenden des Ausschnitts mit nachfolgendem Umwandeln in Pfade kein Ergebnis bringt"
       hide_clip="false"
       flatten="false"
       inverse="true"
       lpeversion="1"
       is_visible="true"
       id="path-effect1460"
       effect="powerclip" />
    <marker
       inkscape:stockid="Arrow1Lend"
       orient="auto"
       refY="0"
       refX="0"
       id="marker2592"
       style="overflow:visible"
       inkscape:isstock="true">
      <path
         id="path2590"
         d="M 0,0 5,-5 -12.5,0 5,5 Z"
         style="fill:#000000;fill-opacity:1;fill-rule:evenodd;stroke:#000000;stroke-width:1pt;stroke-opacity:1"
         transform="matrix(-0.8,0,0,-0.8,-10,0)" />
    </marker>
    <marker
       inkscape:isstock="true"
       style="overflow:visible"
       id="marker2582"
       refX="0"
       refY="0"
       orient="auto"
       inkscape:stockid="Arrow1Lstart">
      <path
         transform="matrix(0.8,0,0,0.8,10,0)"
         style="fill:#000000;fill-opacity:1;fill-rule:evenodd;stroke:#000000;stroke-width:1pt;stroke-opacity:1"
         d="M 0,0 5,-5 -12.5,0 5,5 Z"
         id="path2580" />
    </marker>
    <marker
       inkscape:stockid="Arrow1Lend"
       orient="auto"
       refY="0"
       refX="0"
       id="marker2028"
       style="overflow:visible"
       inkscape:isstock="true">
      <path
         id="path2026"
         d="M 0,0 5,-5 -12.5,0 5,5 Z"
         style="fill:#000000;fill-opacity:1;fill-rule:evenodd;stroke:#000000;stroke-width:1pt;stroke-opacity:1"
         transform="matrix(-0.8,0,0,-0.8,-10,0)" />
    </marker>
    <marker
       inkscape:isstock="true"
       style="overflow:visible"
       id="marker2018"
       refX="0"
       refY="0"
       orient="auto"
       inkscape:stockid="Arrow1Lstart">
      <path
         transform="matrix(0.8,0,0,0.8,10,0)"
         style="fill:#000000;fill-opacity:1;fill-rule:evenodd;stroke:#000000;stroke-width:1pt;stroke-opacity:1"
         d="M 0,0 5,-5 -12.5,0 5,5 Z"
         id="path2016" />
    </marker>
    <marker
       inkscape:stockid="Arrow1Lend"
       orient="auto"
       refY="0"
       refX="0"
       id="marker1596"
       style="overflow:visible"
       inkscape:isstock="true">
      <path
         id="path1594"
         d="M 0,0 5,-5 -12.5,0 5,5 Z"
         style="fill:#000000;fill-opacity:1;fill-rule:evenodd;stroke:#000000;stroke-width:1pt;stroke-opacity:1"
         transform="matrix(-0.8,0,0,-0.8,-10,0)" />
    </marker>
    <marker
       inkscape:isstock="true"
       style="overflow:visible"
       id="marker1586"
       refX="0"
       refY="0"
       orient="auto"
       inkscape:stockid="Arrow1Lend">
      <path
         transform="matrix(-0.8,0,0,-0.8,-10,0)"
         style="fill:#000000;fill-opacity:1;fill-rule:evenodd;stroke:#000000;stroke-width:1pt;stroke-opacity:1"
         d="M 0,0 5,-5 -12.5,0 5,5 Z"
         id="path1584" />
    </marker>
    <marker
       inkscape:isstock="true"
       style="overflow:visible"
       id="marker1576"
       refX="0"
       refY="0"
       orient="auto"
       inkscape:stockid="Arrow1Lstart">
      <path
         transform="matrix(0.8,0,0,0.8,10,0)"
         style="fill:#000000;fill-opacity:1;fill-rule:evenodd;stroke:#000000;stroke-width:1pt;stroke-opacity:1"
         d="M 0,0 5,-5 -12.5,0 5,5 Z"
         id="path1574" />
    </marker>
    <marker
       inkscape:stockid="Arrow1Lstart"
       orient="auto"
       refY="0"
       refX="0"
       id="marker1566"
       style="overflow:visible"
       inkscape:isstock="true">
      <path
         id="path1564"
         d="M 0,0 5,-5 -12.5,0 5,5 Z"
         style="fill:#000000;fill-opacity:1;fill-rule:evenodd;stroke:#000000;stroke-width:1pt;stroke-opacity:1"
         transform="matrix(0.8,0,0,0.8,10,0)" />
    </marker>
    <clipPath
       clipPathUnits="userSpaceOnUse"
       id="clipath_lpe_path-effect1549">
      <path
         id="path1551"
         style="color:#000000;font-style:normal;font-variant:normal;font-weight:normal;font-stretch:normal;font-size:medium;line-height:normal;font-family:sans-serif;font-variant-ligatures:normal;font-variant-position:normal;font-variant-caps:normal;font-variant-numeric:normal;font-variant-alternates:normal;font-variant-east-asian:normal;font-feature-settings:normal;font-variation-settings:normal;text-indent:0;text-align:start;text-decoration:none;text-decoration-line:none;text-decoration-style:solid;text-decoration-color:#000000;letter-spacing:normal;word-spacing:normal;text-transform:none;writing-mode:lr-tb;direction:ltr;text-orientation:mixed;dominant-baseline:auto;baseline-shift:baseline;text-anchor:start;white-space:normal;shape-padding:0;shape-margin:0;inline-size:0;clip-rule:nonzero;display:none;overflow:visible;visibility:visible;isolation:auto;mix-blend-mode:normal;color-interpolation:sRGB;color-interpolation-filters:linearRGB;solid-color:#000000;solid-opacity:1;vector-effect:none;fill:#00ffff;fill-opacity:1;fill-rule:nonzero;stroke:none;stroke-width:2;stroke-linecap:butt;stroke-linejoin:miter;stroke-miterlimit:4;stroke-dasharray:none;stroke-dashoffset:0;stroke-opacity:1;color-rendering:auto;image-rendering:auto;shape-rendering:auto;text-rendering:auto;enable-background:accumulate;stop-color:#000000"
         d="m 44.534749,29.014251 v 5.045686 l 3.001885,0.383439 c 1.405118,0.170318 2.043899,0.80858 1.916161,1.915644 l -1.578714,18.940447 6.67711,5.341276 0.968933,-15.020271 v -4.151686 l 1.277443,4.087606 10.118762,28.443743 h -8.082195 v 1.999877 H 82.53708 v -0.99994 h 18.26607 V 69.954386 L 97.354263,69.379745 C 96.587839,69.252007 96.098516,69.039079 95.885619,68.741023 95.715302,68.442967 95.587338,67.868168 95.50218,67.016582 L 92.75558,36.487179 V 36.03966 c 0,-0.212897 0.043,-0.425307 0.128156,-0.638204 0.170318,-0.510952 0.787601,-0.830342 1.852083,-0.95808 l 3.257167,-0.383439 V 29.014251 H 82.664721 L 72.062269,61.587454 71.423549,64.9087 70.720749,61.587454 59.28837,29.014251 Z m 41.067778,12.454535 0.12764,4.151686 1.788523,21.906672 c 0.127738,1.192223 -0.490061,1.873485 -1.852602,2.043803 l -3.129524,0.383439 v 4.045749 h -7.518921 l 9.626804,-28.571383 z m 35.613843,1.916163 c -1.63989,0 -3.17711,0.157136 -4.61212,0.471289 l 1.42679,5.338175 c 0.57876,-0.08343 1.2144,-0.125058 1.90789,-0.125058 2.42702,0 4.34337,0.915175 5.74849,2.746087 1.44769,1.788332 2.17144,4.257979 2.17144,7.408849 0,1.830911 -0.19143,3.661778 -0.57464,5.492689 -0.38321,1.788332 -0.93704,3.023412 -1.66088,3.704683 -0.52606,0.526052 -1.23842,0.91677 -2.13682,1.172022 l -1.64796,-6.152079 3.06699,11.475268 c 0.69065,-0.190209 1.35585,-0.417759 1.99523,-0.683162 2.2567,-0.979324 4.02359,-2.256891 5.30097,-3.832326 2.55476,-3.236028 3.83232,-6.85528 3.83232,-10.857732 0,-4.981782 -1.19208,-8.920422 -3.57653,-11.815818 -2.38443,-2.895394 -6.13165,-4.342887 -11.24117,-4.342887 z m 63.48967,0.63872 v 4.662249 l 2.61896,0.383437 c 0.42579,0.04258 0.80865,0.234008 1.14928,0.574643 0.34063,0.298056 0.68153,0.915337 1.02216,1.852084 l 9.51622,24.844994 -1.08573,3.129526 c -1.36253,3.704402 -3.55527,5.556766 -6.57841,5.556766 -1.87348,0 -3.81082,-0.23391 -5.81205,-0.702284 l 0.83045,5.62033 c 1.83091,0.68127 4.06613,1.021643 6.70605,1.021643 4.9392,0 8.47348,-2.767539 10.60245,-8.302852 l 11.94346,-31.168123 c 0.34064,-0.809009 0.63853,-1.383808 0.894,-1.724443 0.29805,-0.383215 0.74541,-0.617125 1.34152,-0.702284 l 2.61844,-0.383437 v -4.662249 h -14.94533 v 4.662249 l 2.81016,0.383437 c 0.55353,0.04258 0.83044,0.255508 0.83044,0.638723 0,0.383212 -0.14894,0.978995 -0.447,1.788004 l -5.62085,16.15922 -5.87561,-16.15922 c -0.29805,-0.766429 -0.447,-1.298747 -0.447,-1.596803 0,-0.425791 0.29789,-0.702186 0.894,-0.829924 l 2.81017,-0.383437 v -4.662249 z" />
      <path
         id="lpe_path-effect1549"
         style="color:#000000;font-style:normal;font-variant:normal;font-weight:normal;font-stretch:normal;font-size:medium;line-height:normal;font-family:sans-serif;font-variant-ligatures:normal;font-variant-position:normal;font-variant-caps:normal;font-variant-numeric:normal;font-variant-alternates:normal;font-variant-east-asian:normal;font-feature-settings:normal;font-variation-settings:normal;text-indent:0;text-align:start;text-decoration:none;text-decoration-line:none;text-decoration-style:solid;text-decoration-color:#000000;letter-spacing:normal;word-spacing:normal;text-transform:none;writing-mode:lr-tb;direction:ltr;text-orientation:mixed;dominant-baseline:auto;baseline-shift:baseline;text-anchor:start;white-space:normal;shape-padding:0;shape-margin:0;inline-size:0;clip-rule:nonzero;display:inline;overflow:visible;visibility:visible;isolation:auto;mix-blend-mode:normal;color-interpolation:sRGB;color-interpolation-filters:linearRGB;solid-color:#000000;solid-opacity:1;vector-effect:none;fill:#00ffff;fill-opacity:1;fill-rule:nonzero;stroke:none;stroke-width:2;stroke-linecap:butt;stroke-linejoin:miter;stroke-miterlimit:4;stroke-dasharray:none;stroke-dashoffset:0;stroke-opacity:1;color-rendering:auto;image-rendering:auto;shape-rendering:auto;text-rendering:auto;enable-background:accumulate;stop-color:#000000"
         class="powerclip"
         d="M 9.5822392,16.574555 H 270.404 V 181.07024 H 9.5822392 Z M 44.534749,29.014251 v 5.045686 l 3.001885,0.383439 c 1.405118,0.170318 2.043899,0.80858 1.916161,1.915644 l -1.578714,18.940447 6.67711,5.341276 0.968933,-15.020271 v -4.151686 l 1.277443,4.087606 10.118762,28.443743 h -8.082195 v 1.999877 H 82.53708 v -0.99994 h 18.26607 V 69.954386 L 97.354263,69.379745 C 96.587839,69.252007 96.098516,69.039079 95.885619,68.741023 95.715302,68.442967 95.587338,67.868168 95.50218,67.016582 L 92.75558,36.487179 V 36.03966 c 0,-0.212897 0.043,-0.425307 0.128156,-0.638204 0.170318,-0.510952 0.787601,-0.830342 1.852083,-0.95808 l 3.257167,-0.383439 V 29.014251 H 82.664721 L 72.062269,61.587454 71.423549,64.9087 70.720749,61.587454 59.28837,29.014251 Z m 41.067778,12.454535 -0.95808,3.959966 -9.626804,28.571383 h 7.518921 v -4.045749 l 3.129524,-0.383439 c 1.362541,-0.170318 1.98034,-0.85158 1.852602,-2.043803 L 85.730167,45.620472 Z m 35.613843,1.916163 c -1.63989,0 -3.17711,0.157136 -4.61212,0.471289 l 1.42679,5.338175 c 0.57876,-0.08343 1.2144,-0.125058 1.90789,-0.125058 2.42702,0 4.34337,0.915175 5.74849,2.746087 1.44769,1.788332 2.17144,4.257979 2.17144,7.408849 0,1.830911 -0.19143,3.661778 -0.57464,5.492689 -0.38321,1.788332 -0.93704,3.023412 -1.66088,3.704683 -0.52606,0.526052 -1.23842,0.91677 -2.13682,1.172022 l -1.64796,-6.152079 3.06699,11.475268 c 0.69065,-0.190209 1.35585,-0.417759 1.99523,-0.683162 2.2567,-0.979324 4.02359,-2.256891 5.30097,-3.832326 2.55476,-3.236028 3.83232,-6.85528 3.83232,-10.857732 0,-4.981782 -1.19208,-8.920422 -3.57653,-11.815818 -2.38443,-2.895394 -6.13165,-4.342887 -11.24117,-4.342887 z m 63.48967,0.63872 v 4.662249 l 2.61896,0.383437 c 0.42579,0.04258 0.80865,0.234008 1.14928,0.574643 0.34063,0.298056 0.68153,0.915337 1.02216,1.852084 l 9.51622,24.844994 -1.08573,3.129526 c -1.36253,3.704402 -3.55527,5.556766 -6.57841,5.556766 -1.87348,0 -3.81082,-0.23391 -5.81205,-0.702284 l 0.83045,5.62033 c 1.83091,0.68127 4.06613,1.021643 6.70605,1.021643 4.9392,0 8.47348,-2.767539 10.60245,-8.302852 l 11.94346,-31.168123 c 0.34064,-0.809009 0.63853,-1.383808 0.894,-1.724443 0.29805,-0.383215 0.74541,-0.617125 1.34152,-0.702284 l 2.61844,-0.383437 v -4.662249 h -14.94533 v 4.662249 l 2.81016,0.383437 c 0.55353,0.04258 0.83044,0.255508 0.83044,0.638723 0,0.383212 -0.14894,0.978995 -0.447,1.788004 l -5.62085,16.15922 -5.87561,-16.15922 c -0.29805,-0.766429 -0.447,-1.298747 -0.447,-1.596803 0,-0.425791 0.29789,-0.702186 0.894,-0.829924 l 2.81017,-0.383437 v -4.662249 z" />
    </clipPath>
    <clipPath
       id="clipPath1950"
       clipPathUnits="userSpaceOnUse">
      <path
         d="m 62.664393,29.014251 -9.93738,30.53095 3.286104,11.501107 8.631515,-25.617556 0.958083,-3.959966 0.12764,4.151686 1.788004,21.906672 c 0.127739,1.192223 -0.489542,1.873485 -1.852083,2.043803 l -3.129523,0.383439 v 4.045749 h -7.537009 v 1.999877 h 30.000237 v -1.999877 h -4.196644 v -4.045749 l -3.448886,-0.574641 c -0.766426,-0.127738 -1.256265,-0.340666 -1.46916,-0.638722 -0.170317,-0.298056 -0.297764,-0.872855 -0.382923,-1.724441 L 72.755765,36.487179 V 36.03966 c 0,-0.212897 0.04248,-0.425307 0.127641,-0.638204 0.170317,-0.510952 0.787601,-0.830342 1.852083,-0.95808 l 3.257682,-0.383439 v -5.045686 z m 58.574717,0 v 4.853966 l 3.06596,0.38344 c 0.76643,0.08516 1.25626,0.319069 1.46916,0.702283 0.25548,0.383212 0.38292,1.001011 0.38292,1.852599 v 29.954244 c 0,0.851585 -0.12744,1.447888 -0.38292,1.78852 -0.2129,0.340635 -0.70273,0.596045 -1.46916,0.766363 l -3.06596,0.574641 v 4.109828 h -1.46193 v 1.999877 h 59.10492 l 0.13074,0.341064 -1.08572,3.129526 c -1.36254,3.704402 -3.55528,5.556766 -6.57841,5.556766 -1.87349,0 -3.81082,-0.23391 -5.81205,-0.702284 l 0.82993,5.62033 c 1.83091,0.68127 4.06665,1.021643 6.70657,1.021643 4.93919,0 8.47296,-2.767539 10.60193,-8.302852 l 2.55385,-6.664193 h 13.81983 V 74.000135 H 186.9953 l 8.62325,-22.504053 c 0.34064,-0.809009 0.63904,-1.383808 0.89452,-1.724443 0.29805,-0.383215 0.74489,-0.617125 1.341,-0.702284 l 2.61896,-0.383437 v -4.662249 h -14.94534 v 4.662249 l 2.81016,0.383437 c 0.55354,0.04258 0.82993,0.255508 0.82993,0.638723 0,0.383212 -0.14894,0.978995 -0.447,1.788004 l -5.62033,16.15922 -5.87613,-16.15922 c -0.29805,-0.766429 -0.447,-1.298747 -0.447,-1.596803 0,-0.425791 0.29841,-0.702186 0.89452,-0.829924 l 2.81016,-0.383437 v -4.662249 h -15.77578 v 4.662249 l 2.61845,0.383437 c 0.42579,0.04258 0.80916,0.234008 1.1498,0.574643 0.34063,0.298056 0.68101,0.915337 1.02164,1.852084 l 8.62015,22.504053 h -29.41165 c 3.39192,-1.034592 6.13888,-2.871893 8.23775,-5.514909 3.44892,-4.385672 5.17332,-10.133676 5.17332,-17.244425 0,-7.153328 -1.63944,-12.645924 -4.91804,-16.478065 -3.27862,-3.83214 -8.55828,-5.748485 -15.83935,-5.748485 z m 13.0297,6.514846 h 6.45076 c 4.47084,0 7.68521,1.170585 9.64386,3.512447 2.00123,2.299284 3.00188,6.450851 3.00188,12.454538 0,5.961107 -1.02163,10.283118 -3.06544,12.965618 -2.00123,2.682496 -5.19462,4.023526 -9.5803,4.023526 h -6.45076 z"
         style="font-style:normal;font-variant:normal;font-weight:bold;font-stretch:normal;font-size:63.869px;line-height:33.7974px;font-family:Enriqueta;-inkscape-font-specification:'Enriqueta, Bold';font-variant-ligatures:normal;font-variant-caps:normal;font-variant-numeric:normal;font-variant-east-asian:normal;text-align:start;letter-spacing:0px;word-spacing:0px;text-anchor:start;display:none;fill:#ff0000;stroke-width:0.264583"
         id="path1952" />
      <path
         d="M 9.5822392,16.574555 H 270.404 V 181.07024 H 9.5822392 Z m 53.0821538,12.439696 -9.93738,30.53095 3.286104,11.501107 8.631515,-25.617556 0.958083,-3.959966 0.12764,4.151686 1.788004,21.906672 c 0.127739,1.192223 -0.489542,1.873485 -1.852083,2.043803 l -3.129523,0.383439 v 4.045749 h -7.537009 v 1.999877 h 30.000237 v -1.999877 h -4.196644 v -4.045749 l -3.448886,-0.574641 c -0.766426,-0.127738 -1.256265,-0.340666 -1.46916,-0.638722 -0.170317,-0.298056 -0.297764,-0.872855 -0.382923,-1.724441 L 72.755765,36.487179 V 36.03966 c 0,-0.212897 0.04248,-0.425307 0.127641,-0.638204 0.170317,-0.510952 0.787601,-0.830342 1.852083,-0.95808 l 3.257682,-0.383439 v -5.045686 z m 58.574717,0 v 4.853966 l 3.06596,0.38344 c 0.76643,0.08516 1.25626,0.319069 1.46916,0.702283 0.25548,0.383212 0.38292,1.001011 0.38292,1.852599 v 29.954244 c 0,0.851585 -0.12744,1.447888 -0.38292,1.78852 -0.2129,0.340635 -0.70273,0.596045 -1.46916,0.766363 l -3.06596,0.574641 v 4.109828 h -1.46193 v 1.999877 h 59.10492 l 0.13074,0.341064 -1.08572,3.129526 c -1.36254,3.704402 -3.55528,5.556766 -6.57841,5.556766 -1.87349,0 -3.81082,-0.23391 -5.81205,-0.702284 l 0.82993,5.62033 c 1.83091,0.68127 4.06665,1.021643 6.70657,1.021643 4.93919,0 8.47296,-2.767539 10.60193,-8.302852 l 2.55385,-6.664193 h 13.81983 V 74.000135 H 186.9953 l 8.62325,-22.504053 c 0.34064,-0.809009 0.63904,-1.383808 0.89452,-1.724443 0.29805,-0.383215 0.74489,-0.617125 1.341,-0.702284 l 2.61896,-0.383437 v -4.662249 h -14.94534 v 4.662249 l 2.81016,0.383437 c 0.55354,0.04258 0.82993,0.255508 0.82993,0.638723 0,0.383212 -0.14894,0.978995 -0.447,1.788004 l -5.62033,16.15922 -5.87613,-16.15922 c -0.29805,-0.766429 -0.447,-1.298747 -0.447,-1.596803 0,-0.425791 0.29841,-0.702186 0.89452,-0.829924 l 2.81016,-0.383437 v -4.662249 h -15.77578 v 4.662249 l 2.61845,0.383437 c 0.42579,0.04258 0.80916,0.234008 1.1498,0.574643 0.34063,0.298056 0.68101,0.915337 1.02164,1.852084 l 8.62015,22.504053 h -29.41165 c 3.39192,-1.034592 6.13888,-2.871893 8.23775,-5.514909 3.44892,-4.385672 5.17332,-10.133676 5.17332,-17.244425 0,-7.153328 -1.63944,-12.645924 -4.91804,-16.478065 -3.27862,-3.83214 -8.55828,-5.748485 -15.83935,-5.748485 z m 13.0297,6.514846 v 32.956129 h 6.45076 c 4.38568,0 7.57907,-1.34103 9.5803,-4.023526 2.04381,-2.6825 3.06544,-7.004511 3.06544,-12.965618 0,-6.003687 -1.00065,-10.155254 -3.00188,-12.454538 -1.95865,-2.341862 -5.17302,-3.512447 -9.64386,-3.512447 z"
         class="powerclip"
         style="font-style:normal;font-variant:normal;font-weight:bold;font-stretch:normal;font-size:63.869px;line-height:33.7974px;font-family:Enriqueta;-inkscape-font-specification:'Enriqueta, Bold';font-variant-ligatures:normal;font-variant-caps:normal;font-variant-numeric:normal;font-variant-east-asian:normal;text-align:start;letter-spacing:0px;word-spacing:0px;text-anchor:start;fill:#ff0000;stroke-width:0.264583"
         id="lpe_path-effect1954" />
    </clipPath>
    <clipPath
       clipPathUnits="userSpaceOnUse"
       id="clipath_lpe_path-effect2229">
      <path
         id="path2231"
         style="font-style:normal;font-variant:normal;font-weight:bold;font-stretch:normal;font-size:63.869px;line-height:33.7974px;font-family:Enriqueta;-inkscape-font-specification:'Enriqueta, Bold';font-variant-ligatures:normal;font-variant-caps:normal;font-variant-numeric:normal;font-variant-east-asian:normal;text-align:start;letter-spacing:0px;word-spacing:0px;text-anchor:start;display:none;fill:#ff0000;stroke-width:0.264583"
         d="m 62.664393,29.014251 -9.93738,30.53095 3.286104,11.501107 8.631515,-25.617556 0.958083,-3.959966 0.12764,4.151686 1.788004,21.906672 c 0.127739,1.192223 -0.489542,1.873485 -1.852083,2.043803 l -3.129523,0.383439 v 4.045749 h -7.537009 v 1.999877 h 30.000237 v -1.999877 h -4.196644 v -4.045749 l -3.448886,-0.574641 c -0.766426,-0.127738 -1.256265,-0.340666 -1.46916,-0.638722 -0.170317,-0.298056 -0.297764,-0.872855 -0.382923,-1.724441 L 72.755765,36.487179 V 36.03966 c 0,-0.212897 0.04248,-0.425307 0.127641,-0.638204 0.170317,-0.510952 0.787601,-0.830342 1.852083,-0.95808 l 3.257682,-0.383439 v -5.045686 z m 58.574717,0 v 4.853966 l 3.06596,0.38344 c 0.76643,0.08516 1.25626,0.319069 1.46916,0.702283 0.25548,0.383212 0.38292,1.001011 0.38292,1.852599 v 29.954244 c 0,0.851585 -0.12744,1.447888 -0.38292,1.78852 -0.2129,0.340635 -0.70273,0.596045 -1.46916,0.766363 l -3.06596,0.574641 v 4.109828 h -1.46193 v 1.999877 h 59.10492 l 0.13074,0.341064 -1.08572,3.129526 c -1.36254,3.704402 -3.55528,5.556766 -6.57841,5.556766 -1.87349,0 -3.81082,-0.23391 -5.81205,-0.702284 l 0.82993,5.62033 c 1.83091,0.68127 4.06665,1.021643 6.70657,1.021643 4.93919,0 8.47296,-2.767539 10.60193,-8.302852 l 2.55385,-6.664193 h 13.81983 V 74.000135 H 186.9953 l 8.62325,-22.504053 c 0.34064,-0.809009 0.63904,-1.383808 0.89452,-1.724443 0.29805,-0.383215 0.74489,-0.617125 1.341,-0.702284 l 2.61896,-0.383437 v -4.662249 h -14.94534 v 4.662249 l 2.81016,0.383437 c 0.55354,0.04258 0.82993,0.255508 0.82993,0.638723 0,0.383212 -0.14894,0.978995 -0.447,1.788004 l -5.62033,16.15922 -5.87613,-16.15922 c -0.29805,-0.766429 -0.447,-1.298747 -0.447,-1.596803 0,-0.425791 0.29841,-0.702186 0.89452,-0.829924 l 2.81016,-0.383437 v -4.662249 h -15.77578 v 4.662249 l 2.61845,0.383437 c 0.42579,0.04258 0.80916,0.234008 1.1498,0.574643 0.34063,0.298056 0.68101,0.915337 1.02164,1.852084 l 8.62015,22.504053 h -29.41165 c 3.39192,-1.034592 6.13888,-2.871893 8.23775,-5.514909 3.44892,-4.385672 5.17332,-10.133676 5.17332,-17.244425 0,-7.153328 -1.63944,-12.645924 -4.91804,-16.478065 -3.27862,-3.83214 -8.55828,-5.748485 -15.83935,-5.748485 z m 13.0297,6.514846 h 6.45076 c 4.47084,0 7.68521,1.170585 9.64386,3.512447 2.00123,2.299284 3.00188,6.450851 3.00188,12.454538 0,5.961107 -1.02163,10.283118 -3.06544,12.965618 -2.00123,2.682496 -5.19462,4.023526 -9.5803,4.023526 h -6.45076 z" />
      <path
         id="lpe_path-effect2229"
         style="font-style:normal;font-variant:normal;font-weight:bold;font-stretch:normal;font-size:63.869px;line-height:33.7974px;font-family:Enriqueta;-inkscape-font-specification:'Enriqueta, Bold';font-variant-ligatures:normal;font-variant-caps:normal;font-variant-numeric:normal;font-variant-east-asian:normal;text-align:start;letter-spacing:0px;word-spacing:0px;text-anchor:start;fill:#ff0000;stroke-width:0.264583"
         class="powerclip"
         d="M 9.5143091,16.267827 H 270.404 V 182.15266 H 9.5143091 Z m 53.1500839,12.746424 -9.93738,30.53095 3.286104,11.501107 8.631515,-25.617556 0.958083,-3.959966 0.12764,4.151686 1.788004,21.906672 c 0.127739,1.192223 -0.489542,1.873485 -1.852083,2.043803 l -3.129523,0.383439 v 4.045749 h -7.537009 v 1.999877 h 30.000237 v -1.999877 h -4.196644 v -4.045749 l -3.448886,-0.574641 c -0.766426,-0.127738 -1.256265,-0.340666 -1.46916,-0.638722 -0.170317,-0.298056 -0.297764,-0.872855 -0.382923,-1.724441 L 72.755765,36.487179 V 36.03966 c 0,-0.212897 0.04248,-0.425307 0.127641,-0.638204 0.170317,-0.510952 0.787601,-0.830342 1.852083,-0.95808 l 3.257682,-0.383439 v -5.045686 z m 58.574717,0 v 4.853966 l 3.06596,0.38344 c 0.76643,0.08516 1.25626,0.319069 1.46916,0.702283 0.25548,0.383212 0.38292,1.001011 0.38292,1.852599 v 29.954244 c 0,0.851585 -0.12744,1.447888 -0.38292,1.78852 -0.2129,0.340635 -0.70273,0.596045 -1.46916,0.766363 l -3.06596,0.574641 v 4.109828 h -1.46193 v 1.999877 h 59.10492 l 0.13074,0.341064 -1.08572,3.129526 c -1.36254,3.704402 -3.55528,5.556766 -6.57841,5.556766 -1.87349,0 -3.81082,-0.23391 -5.81205,-0.702284 l 0.82993,5.62033 c 1.83091,0.68127 4.06665,1.021643 6.70657,1.021643 4.93919,0 8.47296,-2.767539 10.60193,-8.302852 l 2.55385,-6.664193 h 13.81983 V 74.000135 H 186.9953 l 8.62325,-22.504053 c 0.34064,-0.809009 0.63904,-1.383808 0.89452,-1.724443 0.29805,-0.383215 0.74489,-0.617125 1.341,-0.702284 l 2.61896,-0.383437 v -4.662249 h -14.94534 v 4.662249 l 2.81016,0.383437 c 0.55354,0.04258 0.82993,0.255508 0.82993,0.638723 0,0.383212 -0.14894,0.978995 -0.447,1.788004 l -5.62033,16.15922 -5.87613,-16.15922 c -0.29805,-0.766429 -0.447,-1.298747 -0.447,-1.596803 0,-0.425791 0.29841,-0.702186 0.89452,-0.829924 l 2.81016,-0.383437 v -4.662249 h -15.77578 v 4.662249 l 2.61845,0.383437 c 0.42579,0.04258 0.80916,0.234008 1.1498,0.574643 0.34063,0.298056 0.68101,0.915337 1.02164,1.852084 l 8.62015,22.504053 h -29.41165 c 3.39192,-1.034592 6.13888,-2.871893 8.23775,-5.514909 3.44892,-4.385672 5.17332,-10.133676 5.17332,-17.244425 0,-7.153328 -1.63944,-12.645924 -4.91804,-16.478065 -3.27862,-3.83214 -8.55828,-5.748485 -15.83935,-5.748485 z m 13.0297,6.514846 v 32.956129 h 6.45076 c 4.38568,0 7.57907,-1.34103 9.5803,-4.023526 2.04381,-2.6825 3.06544,-7.004511 3.06544,-12.965618 0,-6.003687 -1.00065,-10.155254 -3.00188,-12.454538 -1.95865,-2.341862 -5.17302,-3.512447 -9.64386,-3.512447 z" />
    </clipPath>
    <clipPath
       id="clipath_lpe_path-effect2514"
       clipPathUnits="userSpaceOnUse">
      <path
         d="m 62.664393,29.014251 -9.93738,30.53095 3.286104,11.501107 8.631515,-25.617556 0.958083,-3.959966 0.12764,4.151686 1.788004,21.906672 c 0.127739,1.192223 -0.489542,1.873485 -1.852083,2.043803 l -3.129523,0.383439 v 4.045749 h -7.537009 v 1.999877 h 30.000237 v -1.999877 h -4.196644 v -4.045749 l -3.448886,-0.574641 c -0.766426,-0.127738 -1.256265,-0.340666 -1.46916,-0.638722 -0.170317,-0.298056 -0.297764,-0.872855 -0.382923,-1.724441 L 72.755765,36.487179 V 36.03966 c 0,-0.212897 0.04248,-0.425307 0.127641,-0.638204 0.170317,-0.510952 0.787601,-0.830342 1.852083,-0.95808 l 3.257682,-0.383439 v -5.045686 z m 58.574717,0 v 4.853966 l 3.06596,0.38344 c 0.76643,0.08516 1.25626,0.319069 1.46916,0.702283 0.25548,0.383212 0.38292,1.001011 0.38292,1.852599 v 29.954244 c 0,0.851585 -0.12744,1.447888 -0.38292,1.78852 -0.2129,0.340635 -0.70273,0.596045 -1.46916,0.766363 l -3.06596,0.574641 v 4.109828 h -1.46193 v 1.999877 h 59.10492 l 0.13074,0.341064 -1.08572,3.129526 c -1.36254,3.704402 -3.55528,5.556766 -6.57841,5.556766 -1.87349,0 -3.81082,-0.23391 -5.81205,-0.702284 l 0.82993,5.62033 c 1.83091,0.68127 4.06665,1.021643 6.70657,1.021643 4.93919,0 8.47296,-2.767539 10.60193,-8.302852 l 2.55385,-6.664193 h 13.81983 V 74.000135 H 186.9953 l 8.62325,-22.504053 c 0.34064,-0.809009 0.63904,-1.383808 0.89452,-1.724443 0.29805,-0.383215 0.74489,-0.617125 1.341,-0.702284 l 2.61896,-0.383437 v -4.662249 h -14.94534 v 4.662249 l 2.81016,0.383437 c 0.55354,0.04258 0.82993,0.255508 0.82993,0.638723 0,0.383212 -0.14894,0.978995 -0.447,1.788004 l -5.62033,16.15922 -5.87613,-16.15922 c -0.29805,-0.766429 -0.447,-1.298747 -0.447,-1.596803 0,-0.425791 0.29841,-0.702186 0.89452,-0.829924 l 2.81016,-0.383437 v -4.662249 h -15.77578 v 4.662249 l 2.61845,0.383437 c 0.42579,0.04258 0.80916,0.234008 1.1498,0.574643 0.34063,0.298056 0.68101,0.915337 1.02164,1.852084 l 8.62015,22.504053 h -29.41165 c 3.39192,-1.034592 6.13888,-2.871893 8.23775,-5.514909 3.44892,-4.385672 5.17332,-10.133676 5.17332,-17.244425 0,-7.153328 -1.63944,-12.645924 -4.91804,-16.478065 -3.27862,-3.83214 -8.55828,-5.748485 -15.83935,-5.748485 z m 13.0297,6.514846 h 6.45076 c 4.47084,0 7.68521,1.170585 9.64386,3.512447 2.00123,2.299284 3.00188,6.450851 3.00188,12.454538 0,5.961107 -1.02163,10.283118 -3.06544,12.965618 -2.00123,2.682496 -5.19462,4.023526 -9.5803,4.023526 h -6.45076 z"
         style="font-style:normal;font-variant:normal;font-weight:bold;font-stretch:normal;font-size:63.869px;line-height:33.7974px;font-family:Enriqueta;-inkscape-font-specification:'Enriqueta, Bold';font-variant-ligatures:normal;font-variant-caps:normal;font-variant-numeric:normal;font-variant-east-asian:normal;text-align:start;letter-spacing:0px;word-spacing:0px;text-anchor:start;display:none;fill:#ff0000;stroke-width:0.264583"
         id="path2516" />
      <path
         d="M 9.5822392,16.574555 H 270.404 V 181.07024 H 9.5822392 Z m 53.0821538,12.439696 -9.93738,30.53095 3.286104,11.501107 8.631515,-25.617556 0.958083,-3.959966 0.12764,4.151686 1.788004,21.906672 c 0.127739,1.192223 -0.489542,1.873485 -1.852083,2.043803 l -3.129523,0.383439 v 4.045749 h -7.537009 v 1.999877 h 30.000237 v -1.999877 h -4.196644 v -4.045749 l -3.448886,-0.574641 c -0.766426,-0.127738 -1.256265,-0.340666 -1.46916,-0.638722 -0.170317,-0.298056 -0.297764,-0.872855 -0.382923,-1.724441 L 72.755765,36.487179 V 36.03966 c 0,-0.212897 0.04248,-0.425307 0.127641,-0.638204 0.170317,-0.510952 0.787601,-0.830342 1.852083,-0.95808 l 3.257682,-0.383439 v -5.045686 z m 58.574717,0 v 4.853966 l 3.06596,0.38344 c 0.76643,0.08516 1.25626,0.319069 1.46916,0.702283 0.25548,0.383212 0.38292,1.001011 0.38292,1.852599 v 29.954244 c 0,0.851585 -0.12744,1.447888 -0.38292,1.78852 -0.2129,0.340635 -0.70273,0.596045 -1.46916,0.766363 l -3.06596,0.574641 v 4.109828 h -1.46193 v 1.999877 h 59.10492 l 0.13074,0.341064 -1.08572,3.129526 c -1.36254,3.704402 -3.55528,5.556766 -6.57841,5.556766 -1.87349,0 -3.81082,-0.23391 -5.81205,-0.702284 l 0.82993,5.62033 c 1.83091,0.68127 4.06665,1.021643 6.70657,1.021643 4.93919,0 8.47296,-2.767539 10.60193,-8.302852 l 2.55385,-6.664193 h 13.81983 V 74.000135 H 186.9953 l 8.62325,-22.504053 c 0.34064,-0.809009 0.63904,-1.383808 0.89452,-1.724443 0.29805,-0.383215 0.74489,-0.617125 1.341,-0.702284 l 2.61896,-0.383437 v -4.662249 h -14.94534 v 4.662249 l 2.81016,0.383437 c 0.55354,0.04258 0.82993,0.255508 0.82993,0.638723 0,0.383212 -0.14894,0.978995 -0.447,1.788004 l -5.62033,16.15922 -5.87613,-16.15922 c -0.29805,-0.766429 -0.447,-1.298747 -0.447,-1.596803 0,-0.425791 0.29841,-0.702186 0.89452,-0.829924 l 2.81016,-0.383437 v -4.662249 h -15.77578 v 4.662249 l 2.61845,0.383437 c 0.42579,0.04258 0.80916,0.234008 1.1498,0.574643 0.34063,0.298056 0.68101,0.915337 1.02164,1.852084 l 8.62015,22.504053 h -29.41165 c 3.39192,-1.034592 6.13888,-2.871893 8.23775,-5.514909 3.44892,-4.385672 5.17332,-10.133676 5.17332,-17.244425 0,-7.153328 -1.63944,-12.645924 -4.91804,-16.478065 -3.27862,-3.83214 -8.55828,-5.748485 -15.83935,-5.748485 z m 13.0297,6.514846 v 32.956129 h 6.45076 c 4.38568,0 7.57907,-1.34103 9.5803,-4.023526 2.04381,-2.6825 3.06544,-7.004511 3.06544,-12.965618 0,-6.003687 -1.00065,-10.155254 -3.00188,-12.454538 -1.95865,-2.341862 -5.17302,-3.512447 -9.64386,-3.512447 z"
         class="powerclip"
         style="font-style:normal;font-variant:normal;font-weight:bold;font-stretch:normal;font-size:63.869px;line-height:33.7974px;font-family:Enriqueta;-inkscape-font-specification:'Enriqueta, Bold';font-variant-ligatures:normal;font-variant-caps:normal;font-variant-numeric:normal;font-variant-east-asian:normal;text-align:start;letter-spacing:0px;word-spacing:0px;text-anchor:start;fill:#ff0000;stroke-width:0.264583"
         id="lpe_path-effect2514" />
    </clipPath>
    <clipPath
       clipPathUnits="userSpaceOnUse"
       id="clipPath1571">
      <path
         d="m 251.188,90.9035 c -3.92724,0.01181 -7.75776,0.511786 -11.0065,1.436603 -93.27928,-2.040699 -162.269431,1.225876 -220.33775,6.878651 58.068319,5.652776 127.05847,8.919336 220.33775,6.878646 3.28914,0.93623 7.17358,1.43673 11.14963,1.4366 10.9581,10e-6 19.84149,-3.72282 19.84179,-8.315246 -2.9e-4,-4.592425 -8.88368,-8.315256 -19.84179,-8.315254 -0.0477,-7.2e-5 -0.0954,-7.2e-5 -0.14313,0 z"
         style="fill:#89a517;stroke:#000000;stroke-width:1;stroke-linecap:butt;stroke-linejoin:miter;stroke-miterlimit:4;stroke-dasharray:none;stroke-opacity:1"
         id="path1573"
         inkscape:original-d="m 251.21102,90.9035 c -3.92763,0.01181 -7.75854,0.511786 -11.0076,1.436603 -93.28856,-2.040699 -162.285574,1.225876 -220.35967,6.878651 58.074096,5.652776 127.07111,8.919336 220.35967,6.878646 3.28947,0.93623 7.17429,1.43673 11.15074,1.4366 10.95919,10e-6 19.84346,-3.72282 19.84376,-8.315246 -2.9e-4,-4.592425 -8.88456,-8.315256 -19.84376,-8.315254 -0.0477,-7.2e-5 -0.0954,-7.2e-5 -0.14314,0 z" />
    </clipPath>
    <clipPath
       id="clipath_lpe_path-effect2229-1"
       clipPathUnits="userSpaceOnUse">
      <path
         d="m 62.664393,29.014251 -9.93738,30.53095 3.286104,11.501107 8.631515,-25.617556 0.958083,-3.959966 0.12764,4.151686 1.788004,21.906672 c 0.127739,1.192223 -0.489542,1.873485 -1.852083,2.043803 l -3.129523,0.383439 v 4.045749 h -7.537009 v 1.999877 h 30.000237 v -1.999877 h -4.196644 v -4.045749 l -3.448886,-0.574641 c -0.766426,-0.127738 -1.256265,-0.340666 -1.46916,-0.638722 -0.170317,-0.298056 -0.297764,-0.872855 -0.382923,-1.724441 L 72.755765,36.487179 V 36.03966 c 0,-0.212897 0.04248,-0.425307 0.127641,-0.638204 0.170317,-0.510952 0.787601,-0.830342 1.852083,-0.95808 l 3.257682,-0.383439 v -5.045686 z m 58.574717,0 v 4.853966 l 3.06596,0.38344 c 0.76643,0.08516 1.25626,0.319069 1.46916,0.702283 0.25548,0.383212 0.38292,1.001011 0.38292,1.852599 v 29.954244 c 0,0.851585 -0.12744,1.447888 -0.38292,1.78852 -0.2129,0.340635 -0.70273,0.596045 -1.46916,0.766363 l -3.06596,0.574641 v 4.109828 h -1.46193 v 1.999877 h 59.10492 l 0.13074,0.341064 -1.08572,3.129526 c -1.36254,3.704402 -3.55528,5.556766 -6.57841,5.556766 -1.87349,0 -3.81082,-0.23391 -5.81205,-0.702284 l 0.82993,5.62033 c 1.83091,0.68127 4.06665,1.021643 6.70657,1.021643 4.93919,0 8.47296,-2.767539 10.60193,-8.302852 l 2.55385,-6.664193 h 13.81983 V 74.000135 H 186.9953 l 8.62325,-22.504053 c 0.34064,-0.809009 0.63904,-1.383808 0.89452,-1.724443 0.29805,-0.383215 0.74489,-0.617125 1.341,-0.702284 l 2.61896,-0.383437 v -4.662249 h -14.94534 v 4.662249 l 2.81016,0.383437 c 0.55354,0.04258 0.82993,0.255508 0.82993,0.638723 0,0.383212 -0.14894,0.978995 -0.447,1.788004 l -5.62033,16.15922 -5.87613,-16.15922 c -0.29805,-0.766429 -0.447,-1.298747 -0.447,-1.596803 0,-0.425791 0.29841,-0.702186 0.89452,-0.829924 l 2.81016,-0.383437 v -4.662249 h -15.77578 v 4.662249 l 2.61845,0.383437 c 0.42579,0.04258 0.80916,0.234008 1.1498,0.574643 0.34063,0.298056 0.68101,0.915337 1.02164,1.852084 l 8.62015,22.504053 h -29.41165 c 3.39192,-1.034592 6.13888,-2.871893 8.23775,-5.514909 3.44892,-4.385672 5.17332,-10.133676 5.17332,-17.244425 0,-7.153328 -1.63944,-12.645924 -4.91804,-16.478065 -3.27862,-3.83214 -8.55828,-5.748485 -15.83935,-5.748485 z m 13.0297,6.514846 h 6.45076 c 4.47084,0 7.68521,1.170585 9.64386,3.512447 2.00123,2.299284 3.00188,6.450851 3.00188,12.454538 0,5.961107 -1.02163,10.283118 -3.06544,12.965618 -2.00123,2.682496 -5.19462,4.023526 -9.5803,4.023526 h -6.45076 z"
         style="font-style:normal;font-variant:normal;font-weight:bold;font-stretch:normal;font-size:63.869px;line-height:33.7974px;font-family:Enriqueta;-inkscape-font-specification:'Enriqueta, Bold';font-variant-ligatures:normal;font-variant-caps:normal;font-variant-numeric:normal;font-variant-east-asian:normal;text-align:start;letter-spacing:0px;word-spacing:0px;text-anchor:start;display:none;fill:#ff0000;stroke-width:0.264583"
         id="path2231-9" />
      <path
         d="M 9.5143091,16.267827 H 270.404 V 182.15266 H 9.5143091 Z m 53.1500839,12.746424 -9.93738,30.53095 3.286104,11.501107 8.631515,-25.617556 0.958083,-3.959966 0.12764,4.151686 1.788004,21.906672 c 0.127739,1.192223 -0.489542,1.873485 -1.852083,2.043803 l -3.129523,0.383439 v 4.045749 h -7.537009 v 1.999877 h 30.000237 v -1.999877 h -4.196644 v -4.045749 l -3.448886,-0.574641 c -0.766426,-0.127738 -1.256265,-0.340666 -1.46916,-0.638722 -0.170317,-0.298056 -0.297764,-0.872855 -0.382923,-1.724441 L 72.755765,36.487179 V 36.03966 c 0,-0.212897 0.04248,-0.425307 0.127641,-0.638204 0.170317,-0.510952 0.787601,-0.830342 1.852083,-0.95808 l 3.257682,-0.383439 v -5.045686 z m 58.574717,0 v 4.853966 l 3.06596,0.38344 c 0.76643,0.08516 1.25626,0.319069 1.46916,0.702283 0.25548,0.383212 0.38292,1.001011 0.38292,1.852599 v 29.954244 c 0,0.851585 -0.12744,1.447888 -0.38292,1.78852 -0.2129,0.340635 -0.70273,0.596045 -1.46916,0.766363 l -3.06596,0.574641 v 4.109828 h -1.46193 v 1.999877 h 59.10492 l 0.13074,0.341064 -1.08572,3.129526 c -1.36254,3.704402 -3.55528,5.556766 -6.57841,5.556766 -1.87349,0 -3.81082,-0.23391 -5.81205,-0.702284 l 0.82993,5.62033 c 1.83091,0.68127 4.06665,1.021643 6.70657,1.021643 4.93919,0 8.47296,-2.767539 10.60193,-8.302852 l 2.55385,-6.664193 h 13.81983 V 74.000135 H 186.9953 l 8.62325,-22.504053 c 0.34064,-0.809009 0.63904,-1.383808 0.89452,-1.724443 0.29805,-0.383215 0.74489,-0.617125 1.341,-0.702284 l 2.61896,-0.383437 v -4.662249 h -14.94534 v 4.662249 l 2.81016,0.383437 c 0.55354,0.04258 0.82993,0.255508 0.82993,0.638723 0,0.383212 -0.14894,0.978995 -0.447,1.788004 l -5.62033,16.15922 -5.87613,-16.15922 c -0.29805,-0.766429 -0.447,-1.298747 -0.447,-1.596803 0,-0.425791 0.29841,-0.702186 0.89452,-0.829924 l 2.81016,-0.383437 v -4.662249 h -15.77578 v 4.662249 l 2.61845,0.383437 c 0.42579,0.04258 0.80916,0.234008 1.1498,0.574643 0.34063,0.298056 0.68101,0.915337 1.02164,1.852084 l 8.62015,22.504053 h -29.41165 c 3.39192,-1.034592 6.13888,-2.871893 8.23775,-5.514909 3.44892,-4.385672 5.17332,-10.133676 5.17332,-17.244425 0,-7.153328 -1.63944,-12.645924 -4.91804,-16.478065 -3.27862,-3.83214 -8.55828,-5.748485 -15.83935,-5.748485 z m 13.0297,6.514846 v 32.956129 h 6.45076 c 4.38568,0 7.57907,-1.34103 9.5803,-4.023526 2.04381,-2.6825 3.06544,-7.004511 3.06544,-12.965618 0,-6.003687 -1.00065,-10.155254 -3.00188,-12.454538 -1.95865,-2.341862 -5.17302,-3.512447 -9.64386,-3.512447 z"
         class="powerclip"
         style="font-style:normal;font-variant:normal;font-weight:bold;font-stretch:normal;font-size:63.869px;line-height:33.7974px;font-family:Enriqueta;-inkscape-font-specification:'Enriqueta, Bold';font-variant-ligatures:normal;font-variant-caps:normal;font-variant-numeric:normal;font-variant-east-asian:normal;text-align:start;letter-spacing:0px;word-spacing:0px;text-anchor:start;fill:#ff0000;stroke-width:0.264583"
         id="lpe_path-effect2229-2" />
    </clipPath>
  </defs>
  <sodipodi:namedview
     inkscape:snap-page="false"
     fit-margin-bottom="0"
     fit-margin-right="0"
     fit-margin-left="0"
     fit-margin-top="0"
     inkscape:snap-others="false"
     inkscape:bbox-nodes="true"
     inkscape:snap-bbox="true"
     inkscape:snap-global="true"
     inkscape:snap-to-guides="false"
     inkscape:window-maximized="1"
     inkscape:window-y="-11"
     inkscape:window-x="-11"
     inkscape:window-height="1046"
     inkscape:window-width="1920"
     showgrid="true"
     inkscape:document-rotation="0"
     inkscape:current-layer="layer1"
     inkscape:document-units="px"
     inkscape:cy="540"
     inkscape:cx="390.93168"
     inkscape:zoom="0.44722222"
     inkscape:pageshadow="2"
     inkscape:pageopacity="0.0"
     borderopacity="1.0"
     bordercolor="#666666"
     pagecolor="#ffffff"
     id="base"
     showguides="true"
     inkscape:guide-bbox="true"
     inkscape:snap-grids="false"
     inkscape:snap-object-midpoints="true"
     inkscape:object-paths="false"
     inkscape:snap-smooth-nodes="false"
     inkscape:snap-nodes="true"
     inkscape:snap-text-baseline="true"
     inkscape:snap-bbox-midpoints="true"
     units="px">
    <inkscape:grid
       originy="83.882729"
       originx="135.15648"
       spacingy="1.3229167"
       spacingx="1.3229167"
       units="px"
       id="grid833"
       type="xygrid" />
  </sodipodi:namedview>
  <metadata
     id="metadata5">
    <rdf:RDF>
      <cc:Work
         rdf:about="">
        <dc:format>image/svg+xml</dc:format>
        <dc:type
           rdf:resource="http://purl.org/dc/dcmitype/StillImage" />
        <dc:title></dc:title>
      </cc:Work>
    </rdf:RDF>
  </metadata>
  <g
     transform="translate(-24.68703,-92.234554)"
     id="layer1"
     inkscape:groupmode="layer"
     inkscape:label="Achsenkreuz"
     style="display:inline">
    <path
       style="fill:none;stroke:#000000;stroke-width:3.22585;stroke-linecap:butt;stroke-linejoin:miter;stroke-miterlimit:4;stroke-dasharray:none;stroke-opacity:1;marker-start:url(#marker2410);marker-end:url(#marker2420)"
       d="M 75.269586,109.08044 V 351.01955 H 486.56607"
       id="path2215"
       sodipodi:nodetypes="ccc" />
  </g>
  <g
     inkscape:groupmode="layer"
     id="layer2"
     inkscape:label="Step Response"
     style="display:none">
    <path
       id="path2428"
       title="1-exp(-x)*sin(3.95*x+pi/2)"
       d="M 50.582556,258.785 C 66.435876,224.97412 82.289193,61.019158 98.142352,26.570427 c 15.853298,-34.44873 31.706618,34.77923 47.559928,72.574179 15.85362,37.793304 31.70662,30.066414 47.55961,9.580934 15.85301,-20.487144 31.70757,-34.615634 47.56057,-29.144354 15.85299,5.47129 31.70599,19.19987 47.55902,20.799464 15.85297,1.59957 31.70753,-5.365534 47.56054,-8.273854 15.85299,-2.90832 31.70598,-1.30709 47.55899,0.58001 15.85457,1.88545 31.70756,2.63898 47.56055,1.96642 15.85299,-0.67089 31.706,-1.75326 47.55901,-1.76482"
       style="fill:none;stroke:#89a517;stroke-width:3.96875;stroke-miterlimit:4;stroke-dasharray:none" />
  </g>
  <g
     inkscape:groupmode="layer"
     id="layer3"
     inkscape:label="MoDyPy und Python"
     style="display:inline">
    <path
       style="display:inline;fill:none;stroke:#bc0000;stroke-width:3.22585;stroke-linecap:butt;stroke-linejoin:miter;stroke-miterlimit:4;stroke-dasharray:none;stroke-opacity:1"
       d="M 75.269586,189.72681 H 464.65818"
       id="path2217"
       transform="translate(-24.68703,-92.234555)" />
    <g
       id="g1029"
       transform="translate(-24.68722,-92.234825)">
      <text
         xml:space="preserve"
         style="font-style:normal;font-variant:normal;font-weight:bold;font-stretch:normal;font-size:103.016px;line-height:54.5128px;font-family:Enriqueta;-inkscape-font-specification:'Enriqueta, Bold';font-variant-ligatures:normal;font-variant-caps:normal;font-variant-numeric:normal;font-variant-east-asian:normal;text-align:start;letter-spacing:0px;word-spacing:0px;text-anchor:start;stroke-width:0.426753"
         x="83.334221"
         y="189.72681"
         id="text2213"><tspan
           sodipodi:role="line"
           id="tspan2211"
           x="83.334221"
           y="189.72681"
           style="font-style:normal;font-variant:normal;font-weight:bold;font-stretch:normal;font-size:103.016px;font-family:Enriqueta;-inkscape-font-specification:'Enriqueta, Bold';font-variant-ligatures:normal;font-variant-caps:normal;font-variant-numeric:normal;font-variant-east-asian:normal;text-align:start;text-anchor:start;stroke-width:0.426753">MoDyPy</tspan></text>
      <g
         id="g1020">
        <path
           sodipodi:nodetypes="csssscccssscc"
           id="path2219"
           d="m 477.90135,188.26554 c 0,0 2.67639,0.21224 3.92785,0.65464 1.20788,0.427 2.07075,1.76794 3.34595,1.89118 1.29739,0.12539 2.45647,-0.87802 3.70964,-1.23654 1.79794,-0.51438 3.58923,-1.18719 5.45532,-1.30928 1.38668,-0.0907 4.14604,0.43643 4.14604,0.43643 l -1.89115,0.80011 1.67296,0.72738 c 0,0 -2.22583,0.55427 -3.34592,0.80011 -3.01892,0.66261 -6.01017,2.05003 -9.09225,1.81845 -1.49141,-0.11206 -2.77671,-1.13103 -4.21881,-1.52749 -1.11876,-0.30757 -3.41868,-0.65464 -3.41868,-0.65464 z"
           style="fill:#bc0000;fill-opacity:1;stroke:none;stroke-width:0.426753px;stroke-linecap:butt;stroke-linejoin:miter;stroke-opacity:1" />
        <g
           transform="matrix(1.6129274,0,0,1.6129274,51.075675,68.757253)"
           inkscape:path-effect="#path-effect2229"
           clip-path="url(#clipath_lpe_path-effect2229-1)"
           id="g2225">
          <path
             inkscape:original-d="M 35.07535,46.119864 C 32.424266,57.841855 19.505133,137.01872 17.186834,156.21659 c -2.318297,19.19788 -1.878185,13.82114 -2.25298,19.85362 4.351222,-5.40871 8.830377,-14.55142 10.347369,-18.68792 1.516991,-4.1365 6.866872,-33.32297 9.977074,-52.1291 3.110203,-18.806127 7.44432,-43.456992 9.969373,-53.879099 2.525151,-10.422116 4.49816,-16.461948 6.620507,-16.332566 2.122248,0.129382 4.010235,10.33041 6.039359,15.486018 2.43983,6.198869 4.395634,10.506699 7.377203,18.573349 2.981569,8.06665 6.641514,16.865824 9.990578,22.170239 3.349165,5.304414 5.632054,7.325844 9.779223,8.745569 4.147164,1.41971 7.282285,1.17613 11.886573,-2.265516 4.604277,-3.441647 10.731567,-11.636218 14.498437,-16.31484 3.76687,-4.678622 5.40689,-9.396843 8.72265,-11.516619 3.31576,-2.119766 6.01835,-0.867568 10.00867,0.592615 3.99043,1.460193 9.22638,4.828395 14.52275,7.760111 5.29646,2.931706 11.42686,5.510428 18.86477,5.588958 7.43783,0.0785 18.71362,-2.568891 23.95348,-4.576906 5.23985,-2.008015 7.17436,-6.752118 13.83009,-6.478865 6.65571,0.273254 22.00776,6.716633 25.84596,7.037812 3.83829,0.321181 12.92633,-0.492787 15.72715,-0.658018 2.80082,-0.165232 1.9024,-0.789894 4.03334,-0.0667 2.13095,0.723159 3.50201,2.223813 7.85222,2.223802 4.35022,0 10.27176,-2.802052 10.27176,-6.25845 0,-3.456397 -5.82971,-6.258479 -10.27176,-6.258448 -4.44205,2e-5 -6.03566,1.488434 -8.17941,2.473031 -2.14376,0.984597 -0.73539,0.729415 -5.75509,0.561036 -5.0198,-0.16839 -26.69074,-7.836945 -37.58375,-7.903525 -10.89302,-0.06658 -13.09322,2.525052 -21.42227,5.180215 -8.32905,2.655152 -22.52781,5.434613 -32.28693,-0.95887 C 139.79407,61.784049 127.67794,54.640185 116.33062,61.392977 104.98329,68.145776 96.507401,88.564862 89.825171,89.044775 83.142852,89.524678 80.136977,75.461984 75.54119,64.793083 70.945405,54.12417 62.357689,30.812446 58.460284,25.471144 48.21454,12.815317 37.726434,34.397934 35.07535,46.119915 Z"
             sodipodi:nodetypes="zzczzzzazzzzzzzzzzzzzzzzzzzzzzzzzczz"
             d="M 35.07535,46.119864 C 32.424266,57.841855 19.505133,137.01872 17.186834,156.21659 c -2.318297,19.19788 -1.878185,13.82114 -2.25298,19.85362 4.351222,-5.40871 8.830377,-14.55142 10.347369,-18.68792 1.516991,-4.1365 6.866872,-33.32297 9.977074,-52.1291 3.110203,-18.806127 7.44432,-43.456992 9.969373,-53.879099 2.525151,-10.422116 4.49816,-16.461948 6.620507,-16.332566 2.122248,0.129382 4.010235,10.33041 6.039359,15.486018 2.43983,6.198869 4.395634,10.506699 7.377203,18.573349 2.981569,8.06665 6.641514,16.865824 9.990578,22.170239 3.349165,5.304414 5.632054,7.325844 9.779223,8.745569 4.147164,1.41971 7.282285,1.17613 11.886573,-2.265516 4.604277,-3.441647 10.731567,-11.636218 14.498437,-16.31484 3.76687,-4.678622 5.40689,-9.396843 8.72265,-11.516619 3.31576,-2.119766 6.01835,-0.867568 10.00867,0.592615 3.99043,1.460193 9.22638,4.828395 14.52275,7.760111 5.29646,2.931706 11.42686,5.510428 18.86477,5.588958 7.43783,0.0785 18.71362,-2.568891 23.95348,-4.576906 5.23985,-2.008015 7.17436,-6.752118 13.83009,-6.478865 6.65571,0.273254 22.00776,6.716633 25.84596,7.037812 3.83829,0.321181 12.92633,-0.492787 15.72715,-0.658018 2.80082,-0.165232 1.9024,-0.789894 4.03334,-0.0667 2.13095,0.723159 3.50201,2.223813 7.85222,2.223802 4.35022,0 10.27176,-2.802052 10.27176,-6.25845 0,-3.456397 -5.82971,-6.258479 -10.27176,-6.258448 -4.44205,2e-5 -6.03566,1.488434 -8.17941,2.473031 -2.14376,0.984597 -0.73539,0.729415 -5.75509,0.561036 -5.0198,-0.16839 -26.69074,-7.836945 -37.58375,-7.903525 -10.89302,-0.06658 -13.09322,2.525052 -21.42227,5.180215 -8.32905,2.655152 -22.52781,5.434613 -32.28693,-0.95887 C 139.79407,61.784049 127.67794,54.640185 116.33062,61.392977 104.98329,68.145776 96.507401,88.564862 89.825171,89.044775 83.142852,89.524678 80.136977,75.461984 75.54119,64.793083 70.945405,54.12417 62.357689,30.812446 58.460284,25.471144 48.21454,12.815317 37.726434,34.397934 35.07535,46.119915 Z"
             style="fill:#89a517;stroke:#000000;stroke-width:0.703229;stroke-miterlimit:4;stroke-dasharray:none"
             id="path2221" />
          <path
             inkscape:original-d="m 193.83203,117.94141 c -23.04455,0.003 -57.477,184.76891 -64.97656,216.8125 -7.49957,32.04358 -30.679164,224.30505 -42.951173,261.12109 -12.272009,36.81604 -29.210938,65.54297 -29.210938,65.54297 16.441323,-20.26035 33.365625,-54.50909 39.097657,-70.00391 5.732034,-15.49481 25.947154,-124.82221 37.699214,-195.26758 11.75207,-70.44532 28.12889,-162.78434 37.66993,-201.82421 9.54141,-39.03992 16.99622,-61.66434 25.01562,-61.17969 8.01902,0.48465 15.15316,38.69556 22.82031,58.00781 9.21903,23.22017 16.60899,39.35758 27.875,69.57422 11.26602,30.21664 25.09539,63.17722 37.75,83.04687 12.655,19.86966 21.28088,27.44167 36.95118,32.75977 15.67029,5.31806 27.51651,4.40564 44.91406,-8.48633 17.3975,-12.89197 40.54988,-43.58776 54.7832,-61.11328 14.23332,-17.52552 20.43023,-35.20021 32.95899,-43.14062 12.52875,-7.94038 22.74072,-3.24896 37.81836,2.2207 15.07804,5.46969 34.8624,18.08653 54.875,29.06836 20.01297,10.98179 43.17668,20.64138 71.28124,20.93554 28.10419,0.29405 70.71072,-9.62276 90.50977,-17.14453 19.79906,-7.52176 27.1088,-25.2931 52.25781,-24.26953 25.14898,1.02357 83.15736,25.16018 97.66016,26.36328 14.50318,1.2031 48.84273,-1.8459 59.42578,-2.46484 10.58302,-0.61894 7.18837,-2.95901 15.24024,-0.25 8.05194,2.70886 13.23241,8.33012 29.66992,8.33008 11.01277,0 24.68121,-4.71541 32.50976,-11.71875 -9.81154,1.37238 -23.41868,3.07617 -30.75976,3.07617 -12.27202,0 -16.36392,-6.13631 -42.27149,-8.18164 -25.90756,-2.04534 -49.08809,5.45367 -67.49609,2.72656 -18.408,-2.72711 -64.41698,-29.14682 -88.63086,-29.32226 -24.21388,-0.17545 -51.13205,19.7775 -74.3125,28.64062 -23.18045,8.86312 -59.95531,15.19168 -87.9082,13.82813 -27.9529,-1.36356 -111.74139,-57.63935 -138.14649,-55.375 -26.4051,2.26434 -44.156,51.73845 -70.51953,72.9082 -19.96715,16.0335 -46.36138,40.22656 -65.45117,40.22656 -19.08979,0 -41.30244,-34.39359 -50.45117,-50.45312 -9.14873,-16.05954 -62.65272,-194.99696 -85.69727,-194.99414 z"
             id="path2223"
             style="fill:#edbd00;stroke:#000000;stroke-width:2.64567;stroke-linecap:butt;stroke-linejoin:miter;stroke-miterlimit:4;stroke-dasharray:none;stroke-opacity:1"
             d="m 193.83203,117.94141 c -23.04455,0.003 -57.477,184.76891 -64.97656,216.8125 -7.49957,32.04358 -30.679164,224.30505 -42.951173,261.12109 -12.272009,36.81604 -29.210938,65.54297 -29.210938,65.54297 16.441323,-20.26035 33.365625,-54.50909 39.097657,-70.00391 5.732034,-15.49481 25.947154,-124.82221 37.699214,-195.26758 11.75207,-70.44532 28.12889,-162.78434 37.66993,-201.82421 9.54141,-39.03992 16.99622,-61.66434 25.01562,-61.17969 8.01902,0.48465 15.15316,38.69556 22.82031,58.00781 9.21903,23.22017 16.60899,39.35758 27.875,69.57422 11.26602,30.21664 25.09539,63.17722 37.75,83.04687 12.655,19.86966 21.28088,27.44167 36.95118,32.75977 15.67029,5.31806 27.51651,4.40564 44.91406,-8.48633 17.3975,-12.89197 40.54988,-43.58776 54.7832,-61.11328 14.23332,-17.52552 20.43023,-35.20021 32.95899,-43.14062 12.52875,-7.94038 22.74072,-3.24896 37.81836,2.2207 15.07804,5.46969 34.8624,18.08653 54.875,29.06836 20.01297,10.98179 43.17668,20.64138 71.28124,20.93554 28.10419,0.29405 70.71072,-9.62276 90.50977,-17.14453 19.79906,-7.52176 27.1088,-25.2931 52.25781,-24.26953 25.14898,1.02357 83.15736,25.16018 97.66016,26.36328 14.50318,1.2031 48.84273,-1.8459 59.42578,-2.46484 10.58302,-0.61894 7.18837,-2.95901 15.24024,-0.25 8.05194,2.70886 13.23241,8.33012 29.66992,8.33008 11.01277,0 24.68121,-4.71541 32.50976,-11.71875 -9.81154,1.37238 -23.41868,3.07617 -30.75976,3.07617 -12.27202,0 -16.36392,-6.13631 -42.27149,-8.18164 -25.90756,-2.04534 -49.08809,5.45367 -67.49609,2.72656 -18.408,-2.72711 -64.41698,-29.14682 -88.63086,-29.32226 -24.21388,-0.17545 -51.13205,19.7775 -74.3125,28.64062 -23.18045,8.86312 -59.95531,15.19168 -87.9082,13.82813 -27.9529,-1.36356 -111.74139,-57.63935 -138.14649,-55.375 -26.4051,2.26434 -44.156,51.73845 -70.51953,72.9082 -19.96715,16.0335 -46.36138,40.22656 -65.45117,40.22656 -19.08979,0 -41.30244,-34.39359 -50.45117,-50.45312 -9.14873,-16.05954 -62.65272,-194.99696 -85.69727,-194.99414 z"
             transform="scale(0.26458333)" />
        </g>
      </g>
    </g>
  </g>
</svg>
